<svg width="34" height="42" viewBox="0 0 34 42" fill="none" xmlns="http://www.w3.org/2000/svg">
<g clip-path="url(#clip0_36_709)">
<path d="M4.3172 -0.000339335C1.9373 -0.000339335 0 1.94752 0 4.3386V37.6604C0 40.0515 1.9373 41.9994 4.3172 41.9994H29.6773C32.0572 41.9994 33.9945 40.0516 33.9945 37.6604V10.2606C33.9945 10.2606 34.0624 9.45829 33.7158 8.67755C33.3908 7.94571 32.8612 7.43635 32.8612 7.43635C32.8599 7.43455 32.8586 7.43276 32.8573 7.43097L26.5653 1.23021C26.5619 1.22667 26.5584 1.22317 26.5549 1.21971C26.5549 1.21971 26.0177 0.705765 25.2214 0.362436C24.2837 -0.0418168 23.3173 0.000857368 23.3173 0.000857368L23.3317 -0.000488281L4.3172 -0.000339335Z" fill="white"/>
<path d="M4.31758 1.42505H23.3321C23.3369 1.4251 23.3417 1.4251 23.3465 1.42505C23.3465 1.42505 24.1068 1.43245 24.663 1.67224C25.1983 1.90302 25.5778 2.25237 25.5803 2.25471C25.5803 2.25472 25.583 2.2574 25.583 2.2574L31.8592 8.44369C31.8592 8.44369 32.2373 8.8448 32.4206 9.25758C32.5685 9.59075 32.5776 10.2003 32.5776 10.2003C32.577 10.2104 32.5765 10.2205 32.5763 10.2305V37.6606C32.5763 39.287 31.2964 40.5742 29.6777 40.5742H4.31758C2.69886 40.5742 1.41895 39.287 1.41895 37.6606V4.33877C1.41895 2.71231 2.69886 1.42505 4.31758 1.42505Z" fill="#323232"/>
<path d="M8.48853 30.0062C7.51252 29.0256 8.56849 27.6781 11.4343 26.2471L13.2375 25.3468L13.94 23.8025C14.3263 22.9531 14.903 21.5672 15.2214 20.7228L15.8004 19.1873L15.4014 18.051C14.9108 16.6538 14.7359 14.5542 15.0471 13.7992C15.4687 12.7766 16.8497 12.8815 17.3964 13.9777C17.8234 14.8338 17.7797 16.3843 17.2736 18.3396L16.8587 19.9427L17.2242 20.5661C17.4252 20.909 18.0124 21.7231 18.529 22.3753L19.5 23.5888L20.7083 23.4304C24.5469 22.9271 25.8617 23.7825 25.8617 25.0089C25.8617 26.5567 22.8476 26.6845 20.3165 24.8983C19.747 24.4964 19.3559 24.0972 19.3559 24.0972C19.3559 24.0972 17.7703 24.4215 16.9896 24.633C16.1837 24.8512 15.7817 24.9879 14.6013 25.3882C14.6013 25.3882 14.1871 25.9925 13.9172 26.4318C12.9131 28.0663 11.7408 29.4208 10.9035 29.9138C9.96609 30.4658 8.98334 30.5034 8.48853 30.0062ZM10.0202 29.4564C10.5689 29.1158 11.6793 27.7962 12.448 26.5715L12.7592 26.0756L11.3421 26.7915C9.15348 27.8971 8.15221 28.9392 8.67287 29.5695C8.96535 29.9236 9.31525 29.8942 10.0202 29.4564ZM24.2368 25.447C24.7735 25.0694 24.6956 24.3084 24.0889 24.0016C23.6167 23.7628 23.2362 23.7137 22.0097 23.7319C21.256 23.7835 20.044 23.9362 19.8386 23.9826C19.8386 23.9826 20.5044 24.4449 20.8 24.6149C21.1935 24.8407 22.1498 25.2599 22.8479 25.4746C23.5366 25.6864 23.935 25.664 24.2368 25.447ZM18.5205 23.0599C18.1958 22.7169 17.6435 22.001 17.2934 21.4691C16.8354 20.8656 16.6057 20.4398 16.6057 20.4398C16.6057 20.4398 16.271 21.5216 15.9964 22.1726L15.1396 24.3004L14.8911 24.783C14.8911 24.783 16.2118 24.348 16.8837 24.1716C17.5954 23.9849 19.0398 23.6995 19.0398 23.6995L18.5205 23.0599ZM16.6784 15.6375C16.7612 14.939 16.7964 14.2416 16.573 13.89C15.9535 13.2095 15.2058 13.7769 15.3325 15.3947C15.3751 15.9389 15.5096 16.8692 15.6895 17.4426L16.0166 18.4851L16.2468 17.6999C16.3734 17.2681 16.5676 16.34 16.6784 15.6375Z" fill="white"/>
</g>
<defs>
<clipPath id="clip0_36_709">
<rect width="34" height="42" fill="white"/>
</clipPath>
</defs>
</svg>
