<svg width="25" height="25" viewBox="0 0 25 25" fill="none" xmlns="http://www.w3.org/2000/svg">
<path d="M10.7737 16.5271C10.1183 19.9621 9.31846 23.2553 6.94825 24.9756C6.21602 19.7837 8.02217 15.8844 8.86099 11.7446C7.43067 9.33773 9.03277 4.49369 12.0487 5.687C15.7597 7.15506 8.83541 14.6362 13.4833 15.5706C18.3371 16.5459 20.3187 7.14896 17.3094 4.09339C12.9607 -0.319301 4.65103 3.99291 5.67261 10.3106C5.92115 11.8548 7.51661 12.3233 6.31041 14.4553C3.52715 13.8376 2.69688 11.6428 2.80347 8.71639C2.97584 3.92596 7.10723 0.572495 11.2519 0.108335C16.4931 -0.478286 21.4121 2.03207 22.0913 6.96263C22.8565 12.528 19.726 18.555 14.1211 18.1213C12.6018 18.0031 11.964 17.2501 10.7737 16.5271Z" fill="#FFFBC6"/>
</svg>
