<svg width="25" height="21" viewBox="0 0 25 21" fill="none" xmlns="http://www.w3.org/2000/svg">
<path d="M1.53238 8.85153L16.426 2.81877C17.8957 2.19036 22.8799 0.179434 22.8799 0.179434C22.8799 0.179434 25.1804 -0.700344 24.9887 1.43626C24.9248 2.31604 24.4135 5.39526 23.9023 8.73068L22.3048 18.6016C22.3048 18.6016 22.177 20.047 21.0907 20.2983C20.0044 20.5497 18.2152 19.4185 17.8957 19.1672C17.6401 18.9787 13.1032 16.1508 11.4418 14.7683C10.9945 14.3912 10.4833 13.6371 11.5057 12.7574C13.8061 10.6836 16.5538 8.1071 18.2152 6.47323C18.982 5.71914 19.7488 3.95958 16.5538 6.09618L7.539 12.0564C7.539 12.0564 6.5166 12.6849 4.59959 12.1193C2.68259 11.5537 0.446083 10.7996 0.446083 10.7996C0.446083 10.7996 -1.08752 9.85699 1.53238 8.85153Z" fill="#FFFBC6"/>
</svg>
