<svg width="25" height="26" viewBox="0 0 25 26" fill="none" xmlns="http://www.w3.org/2000/svg">
<path d="M0.104633 12.4432C0.103796 14.6363 0.676626 16.7773 1.76592 18.6643L0 25.1119L6.59885 23.3817C8.41695 24.373 10.4638 24.8956 12.547 24.8965H12.5523C19.4123 24.8965 24.9969 19.3136 25 12.453C25.0011 9.12789 23.7073 6.00146 21.3574 3.64932C19.0069 1.29745 15.8819 0.0013951 12.5523 0C5.69091 0 0.107144 5.58182 0.104354 12.4429L0.104633 12.4432ZM4.03381 18.3392L3.78743 17.948C2.7517 16.3012 2.2051 14.398 2.20566 12.4441C2.20817 6.74143 6.84913 2.10159 12.5559 2.10159C15.3196 2.1027 17.9168 3.18 19.8705 5.13482C21.8239 7.08964 22.899 9.68845 22.8981 12.4519C22.8956 18.1548 18.2544 22.7946 12.552 22.7946H12.5479C10.691 22.7935 8.87008 22.2952 7.28217 21.3526L6.90409 21.1286L2.98804 22.1554L4.03381 18.3392ZM12.5523 24.8965C12.552 24.8965 12.552 24.8965 12.5523 24.8965V24.8965Z" fill="#FFFBC6"/>
<path d="M9.44118 7.24046C9.2082 6.7226 8.96294 6.71199 8.7414 6.70306C8.56003 6.69525 8.35244 6.69581 8.14541 6.69581C7.93782 6.69581 7.60104 6.77366 7.31616 7.08477C7.031 7.39615 6.22742 8.14839 6.22742 9.67854C6.22742 11.209 7.34211 12.6875 7.49724 12.8954C7.65294 13.1027 9.64905 16.3432 12.8101 17.5899C15.4373 18.6259 15.9722 18.42 16.5423 18.3681C17.1126 18.3162 18.3824 17.6159 18.6416 16.8896C18.9008 16.1633 18.9008 15.5408 18.8233 15.411C18.7454 15.2813 18.5381 15.2034 18.227 15.048C17.9159 14.8923 16.3869 14.1401 16.1017 14.0363C15.8165 13.9325 15.6092 13.8809 15.4016 14.1923C15.1943 14.5034 14.5986 15.2037 14.4172 15.411C14.2359 15.6189 14.0542 15.6449 13.7434 15.4892C13.4323 15.3332 12.4306 15.0051 11.2423 13.9456C10.3176 13.1211 9.69342 12.1032 9.51205 11.7918C9.33069 11.4807 9.4928 11.3125 9.64849 11.1574C9.78828 11.0181 9.9596 10.7943 10.1153 10.6127C10.2704 10.4311 10.3223 10.3013 10.4258 10.094C10.5296 9.88641 10.4777 9.70477 10.3999 9.54908C10.3221 9.39338 9.71769 7.85542 9.44118 7.24046Z" fill="#FFFBC6"/>
</svg>
