<svg width="111" height="111" viewBox="0 0 111 111" fill="none" xmlns="http://www.w3.org/2000/svg">
<g opacity="0.5" clip-path="url(#clip0_127_183)" filter="url(#filter0_f_127_183)">
<path d="M63.2314 10.1954C62.6805 10.4975 42.3654 30.8303 42.0633 31.3635C41.1924 32.9987 42.8098 34.6161 44.4449 33.7452C44.7115 33.603 49.4037 28.9997 54.8779 23.5254L64.8311 13.5546H81.1293H97.4453V29.8706V46.1688L72.207 71.4071L46.9688 96.6454L30.6705 80.3471L14.3545 64.0311L23.9699 54.3979C29.2664 49.0836 33.692 44.5692 33.7986 44.3559C34.5984 42.7919 32.9455 41.2278 31.3637 42.0631C30.5105 42.5252 10.2133 63.0002 10.0889 63.5335C10.0178 63.8178 10.0178 64.2444 10.0711 64.511C10.2488 65.2042 45.7957 100.751 46.4889 100.929C46.7555 100.982 47.182 100.982 47.4664 100.929C47.7863 100.84 56.1932 92.5575 74.2154 74.553C88.6652 60.1209 100.609 48.0883 100.751 47.8217C100.964 47.4129 101 44.6403 101 29.3907C101 15.8473 100.947 11.3151 100.787 10.9774C100.325 9.96431 101.16 9.99986 81.5914 9.99986C68.99 10.0176 63.4803 10.071 63.2314 10.1954Z" fill="white"/>
<path d="M86.248 17.6246C84.6661 18.1401 83.1376 19.4909 82.4978 20.9127C81.3781 23.4543 82.3201 26.5469 84.6661 28.0577C87.741 30.0127 91.8822 28.6264 93.1796 25.1784C94.2105 22.4412 92.8419 19.1354 90.1937 17.9623C89.2872 17.5536 87.03 17.358 86.248 17.6246ZM89.2872 21.7125C89.856 22.2813 89.9804 22.5301 89.9804 23.0811C89.9804 25.1073 87.6343 26.1559 86.2302 24.7696C84.8439 23.3655 85.8925 21.0194 87.9187 21.0194C88.4697 21.0194 88.7185 21.1438 89.2872 21.7125Z" fill="white"/>
<path d="M56.8331 26.7959C56.1577 27.0803 51.661 31.6125 51.4477 32.2346C51.1811 32.8922 51.3944 33.5854 51.9809 34.083C52.7807 34.7584 53.5628 34.6873 54.487 33.8342L55.2335 33.1232L59.8723 37.7443C64.4756 42.3121 64.5112 42.3477 65.2577 42.3477C65.862 42.3477 66.1286 42.241 66.5374 41.8322C66.9461 41.4234 67.0528 41.1568 67.0528 40.5525C67.0528 39.8061 67.0172 39.7705 62.4495 35.1672L57.8284 30.5283L58.5393 29.7818C59.4102 28.8398 59.4813 28.04 58.7526 27.258C58.1483 26.6182 57.544 26.476 56.8331 26.7959Z" fill="white"/>
<path d="M48.7284 35.4871C47.4309 36.0203 46.7022 36.5357 46.0801 37.4066C44.5338 39.5395 44.7471 42.3654 46.5778 44.1961C47.5731 45.2092 48.4618 45.6002 49.9903 45.6891C51.1989 45.7602 51.4655 45.7068 52.9051 45.1203C53.7938 44.7648 54.6469 44.4805 54.8247 44.4805C55.8555 44.4805 56.7086 45.5646 56.4776 46.5777C56.3354 47.2354 55.9977 47.5553 54.9491 47.9996C53.936 48.4439 53.545 48.9594 53.545 49.8658C53.545 50.7012 54.327 51.5898 55.0379 51.5898C55.8377 51.5898 57.4018 50.8789 58.2372 50.1324C59.4991 49.0305 60.0145 47.893 60.0323 46.2578C60.0323 44.0895 59.037 42.4721 57.0463 41.4234C56.4598 41.1035 56.0155 41.0146 54.878 41.0146C53.6694 41.0146 53.2606 41.1035 52.1231 41.6012C50.4346 42.3299 49.777 42.3299 49.0838 41.6545C48.1241 40.677 48.4795 39.5572 50.0081 38.7752C51.1989 38.1887 51.5899 37.7088 51.5899 36.8734C51.5899 36.1092 51.1633 35.4871 50.4879 35.2561C49.7948 35.0072 49.9014 34.9895 48.7284 35.4871Z" fill="white"/>
<path d="M37.0334 36.3758C35.4872 37.2289 36.1448 39.6816 37.9043 39.6816C38.8108 39.6816 39.6817 38.8107 39.6817 37.9221C39.6817 36.5891 38.2065 35.7182 37.0334 36.3758Z" fill="white"/>
<path d="M74.962 38.793C74.3932 39.0418 69.5944 44.0006 69.4878 44.4627C69.4344 44.6937 69.4878 45.1381 69.6122 45.4402C69.7544 45.7424 72.2426 48.3729 75.1753 51.2699L80.4895 56.5664H81.2715C82.018 56.5664 82.0891 56.5131 84.5241 54.1137C85.8749 52.7807 87.1012 51.4477 87.2434 51.1811C87.8122 50.0969 86.9413 48.7461 85.6616 48.7461C85.004 48.7461 84.8262 48.8705 83.1022 50.559L81.2538 52.3719L79.9919 51.11L78.7122 49.8303L79.9208 48.5684C81.1116 47.342 81.1294 47.2887 81.0405 46.56C80.8983 45.5824 80.2762 45.0137 79.2809 45.0137C78.6411 45.0137 78.4456 45.1381 77.3792 46.1689L76.1883 47.3064L74.962 46.0801L73.7356 44.8359L75.5485 43.0053C77.077 41.4412 77.3614 41.068 77.3614 40.5881C77.3614 39.1662 76.1706 38.2775 74.962 38.793Z" fill="white"/>
<path d="M41.3701 42.241C41.0857 42.3832 39.735 43.5918 38.402 44.9604C36.0025 47.3953 35.9492 47.4664 35.9492 48.2129V48.9949L41.459 54.5047C46.8621 59.9256 46.9688 60.0322 47.6797 60.0322C48.3729 60.0322 48.4973 59.9256 51.0922 57.3129C53.7049 54.718 53.8115 54.5936 53.8115 53.8826C53.8115 53.2783 53.7049 53.065 53.2072 52.6207C52.6918 52.1586 52.5141 52.0875 51.892 52.1764C51.2699 52.2652 50.9322 52.5141 49.4215 54.0248L47.6797 55.7666L46.4355 54.5225L45.1914 53.2961L46.1512 52.3008C46.6666 51.7676 47.1998 51.1455 47.3064 50.9322C47.9107 49.7592 47.0043 48.3906 45.6357 48.3906C45.2803 48.3906 44.8182 48.7105 43.9295 49.5814L42.6854 50.7723L41.4057 49.4926L40.1438 48.2307L41.9566 46.3822C43.5918 44.7293 43.7695 44.4627 43.7695 43.8939C43.7695 43.4318 43.6273 43.0941 43.2896 42.7209C42.6854 42.0633 42.0811 41.9211 41.3701 42.241Z" fill="white"/>
<path d="M66.3951 48.3903C63.9068 48.8879 62.165 51.0563 62.1828 53.6335C62.2005 55.6774 62.5204 56.1928 66.1285 59.8186C69.8253 63.5333 70.4474 63.942 72.4736 63.9243C75.4595 63.8887 77.539 61.8803 77.6812 58.8411C77.7523 57.668 77.6812 57.3481 77.2902 56.4772C76.6503 55.0731 75.9216 54.4333 74.9796 54.4333C73.4333 54.4333 72.7579 56.0151 73.7177 57.4192C74.1976 58.1124 74.2865 59.0188 73.9665 59.6231C73.6644 60.1741 72.6513 60.5295 71.9581 60.2985C71.1939 60.0497 65.8796 54.7176 65.7019 54.0067C65.5242 53.278 66.0218 52.336 66.7683 52.0338C67.4437 51.7495 67.9591 51.8383 68.7945 52.4249C69.6654 53.0114 70.5007 52.9581 71.1583 52.3182C71.8693 51.5895 71.887 50.5942 71.1583 49.8299C70.1275 48.728 67.9591 48.0881 66.3951 48.3903Z" fill="white"/>
<path d="M32.1635 52.3006C31.0082 52.6028 30.4039 53.0116 28.6799 54.6823C26.9381 56.3708 26.4938 57.0639 26.6537 57.8282C26.707 58.1303 28.5733 60.121 32.2346 63.7823C38.9352 70.4829 38.2242 70.1807 40.9436 67.4969C41.9744 66.4661 42.9164 65.3463 43.183 64.8487C44.1606 62.9292 43.8406 60.6542 42.3654 59.019C41.5123 58.0592 40.126 57.2772 39.2906 57.2772C38.8996 57.2772 38.7752 57.1706 38.6863 56.7795C38.1354 54.1491 36.2158 52.3895 33.7453 52.2118C33.2477 52.1762 32.5367 52.2118 32.1635 52.3006ZM34.474 56.0508C34.9361 56.4418 35.2738 57.2772 35.1494 57.7926C35.0961 58.0592 34.6873 58.6813 34.2608 59.1612L33.4787 60.0321L32.199 58.7524L30.9016 57.4727L31.417 56.904C32.2701 55.9975 32.9455 55.642 33.6031 55.7487C33.9408 55.802 34.3141 55.9442 34.474 56.0508ZM39.7705 61.3651C40.0193 61.6317 40.126 61.9694 40.126 62.5204C40.126 63.2313 40.0371 63.409 39.2906 64.1555L38.4375 65.0086L37.1934 63.7645L35.9492 62.5381L36.6246 61.845C37.7799 60.6186 38.8641 60.4586 39.7705 61.3651Z" fill="white"/>
<path d="M57.455 56.3354C56.4775 56.6908 55.9798 57.9172 56.442 58.8059C56.6019 59.0902 59.0547 61.6496 61.934 64.4934C65.8974 68.4391 67.2838 69.701 67.7103 69.8076C68.8834 70.0565 70.0564 68.8834 69.8076 67.7104C69.7009 67.2838 68.439 65.8975 64.4933 61.934C61.6496 59.0547 59.108 56.602 58.8414 56.4598C58.3437 56.2109 57.9172 56.1576 57.455 56.3354Z" fill="white"/>
<path d="M52.3008 61.845C51.6965 62.0583 51.0033 62.6271 49.5104 64.1023C47.5553 66.0218 47.502 66.1107 47.502 66.8572V67.657L52.7096 72.8823C55.5533 75.7439 58.1127 78.2144 58.3793 78.3566C59.9611 79.1919 61.6141 77.6279 60.8143 76.0638C60.7076 75.8505 59.7301 74.7841 58.6637 73.6999C56.0332 71.0339 56.1576 70.9628 60.7254 72.5091C64.44 73.7532 64.9732 73.8066 65.6309 72.9712C65.8441 72.6868 65.9863 72.2425 65.9863 71.8337C65.9863 70.6784 65.5242 70.3585 62.3428 69.3099L59.499 68.3501V66.946C59.499 65.773 59.4102 65.382 59.0014 64.5288C58.3971 63.3025 57.2063 62.2005 56.0865 61.8273C55.0557 61.4718 53.3494 61.4896 52.3008 61.845ZM55.1623 65.2753C55.34 65.382 55.6244 65.7197 55.7844 66.0218C56.2109 66.8216 55.9799 67.5681 55.0557 68.4745L54.2559 69.2566L53.0117 68.0302L51.7498 66.7861L52.6385 65.9329C53.3494 65.2575 53.6338 65.0976 54.167 65.0976C54.5225 65.0976 54.9668 65.1864 55.1623 65.2753Z" fill="white"/>
<path d="M44.0361 70.483C42.8097 70.8918 42.4898 71.1229 40.6236 72.9713C38.633 74.9264 38.3664 75.4774 38.8462 76.4016C39.0062 76.686 41.4589 79.2453 44.3382 82.0891C48.3017 86.0348 49.688 87.2967 50.1146 87.4033C51.2877 87.6522 52.4607 86.4791 52.1941 85.3061C52.123 84.9151 51.4476 84.0975 50.0257 82.6578L47.964 80.5428L48.9593 79.5297C50.239 78.2145 50.5589 77.5568 50.6656 76.0106C50.7722 74.3576 50.399 73.2024 49.3681 72.0649C48.0529 70.6074 45.7423 69.932 44.0361 70.483ZM46.2578 74.0733C46.9154 74.411 47.1464 74.8375 47.1464 75.6729C47.1464 76.2061 46.9865 76.4904 46.3111 77.2014L45.458 78.0901L44.2138 76.8459L42.9875 75.584L43.6806 74.8553C44.7293 73.7711 45.3335 73.5934 46.2578 74.0733Z" fill="white"/>
</g>
<g clip-path="url(#clip1_127_183)">
<path d="M63.2314 10.1954C62.6805 10.4975 42.3654 30.8303 42.0633 31.3635C41.1924 32.9987 42.8098 34.6161 44.4449 33.7452C44.7115 33.603 49.4037 28.9997 54.8779 23.5254L64.8311 13.5546H81.1293H97.4453V29.8706V46.1688L72.207 71.4071L46.9688 96.6454L30.6705 80.3471L14.3545 64.0311L23.9699 54.3979C29.2664 49.0836 33.692 44.5692 33.7986 44.3559C34.5984 42.7919 32.9455 41.2278 31.3637 42.0631C30.5105 42.5252 10.2133 63.0002 10.0889 63.5335C10.0178 63.8178 10.0178 64.2444 10.0711 64.511C10.2488 65.2042 45.7957 100.751 46.4889 100.929C46.7555 100.982 47.182 100.982 47.4664 100.929C47.7863 100.84 56.1932 92.5575 74.2154 74.553C88.6652 60.1209 100.609 48.0883 100.751 47.8217C100.964 47.4129 101 44.6403 101 29.3907C101 15.8473 100.947 11.3151 100.787 10.9774C100.325 9.96431 101.16 9.99986 81.5914 9.99986C68.99 10.0176 63.4803 10.071 63.2314 10.1954Z" fill="white"/>
<path d="M86.248 17.6246C84.6661 18.1401 83.1376 19.4909 82.4978 20.9127C81.3781 23.4543 82.3201 26.5469 84.6661 28.0577C87.741 30.0127 91.8822 28.6264 93.1796 25.1784C94.2105 22.4412 92.8419 19.1354 90.1937 17.9623C89.2872 17.5536 87.03 17.358 86.248 17.6246ZM89.2872 21.7125C89.856 22.2813 89.9804 22.5301 89.9804 23.0811C89.9804 25.1073 87.6343 26.1559 86.2302 24.7696C84.8439 23.3655 85.8925 21.0194 87.9187 21.0194C88.4697 21.0194 88.7185 21.1438 89.2872 21.7125Z" fill="white"/>
<path d="M56.8331 26.7959C56.1577 27.0803 51.661 31.6125 51.4477 32.2346C51.1811 32.8922 51.3944 33.5854 51.9809 34.083C52.7807 34.7584 53.5628 34.6873 54.487 33.8342L55.2335 33.1232L59.8723 37.7443C64.4756 42.3121 64.5112 42.3477 65.2577 42.3477C65.862 42.3477 66.1286 42.241 66.5374 41.8322C66.9461 41.4234 67.0528 41.1568 67.0528 40.5525C67.0528 39.8061 67.0172 39.7705 62.4495 35.1672L57.8284 30.5283L58.5393 29.7818C59.4102 28.8398 59.4813 28.04 58.7526 27.258C58.1483 26.6182 57.544 26.476 56.8331 26.7959Z" fill="white"/>
<path d="M48.7284 35.4871C47.4309 36.0203 46.7022 36.5357 46.0801 37.4066C44.5338 39.5395 44.7471 42.3654 46.5778 44.1961C47.5731 45.2092 48.4618 45.6002 49.9903 45.6891C51.1989 45.7602 51.4655 45.7068 52.9051 45.1203C53.7938 44.7648 54.6469 44.4805 54.8247 44.4805C55.8555 44.4805 56.7086 45.5646 56.4776 46.5777C56.3354 47.2354 55.9977 47.5553 54.9491 47.9996C53.936 48.4439 53.545 48.9594 53.545 49.8658C53.545 50.7012 54.327 51.5898 55.0379 51.5898C55.8377 51.5898 57.4018 50.8789 58.2372 50.1324C59.4991 49.0305 60.0145 47.893 60.0323 46.2578C60.0323 44.0895 59.037 42.4721 57.0463 41.4234C56.4598 41.1035 56.0155 41.0146 54.878 41.0146C53.6694 41.0146 53.2606 41.1035 52.1231 41.6012C50.4346 42.3299 49.777 42.3299 49.0838 41.6545C48.1241 40.677 48.4795 39.5572 50.0081 38.7752C51.1989 38.1887 51.5899 37.7088 51.5899 36.8734C51.5899 36.1092 51.1633 35.4871 50.4879 35.2561C49.7948 35.0072 49.9014 34.9895 48.7284 35.4871Z" fill="white"/>
<path d="M37.0334 36.3758C35.4872 37.2289 36.1448 39.6816 37.9043 39.6816C38.8108 39.6816 39.6817 38.8107 39.6817 37.9221C39.6817 36.5891 38.2065 35.7182 37.0334 36.3758Z" fill="white"/>
<path d="M74.962 38.793C74.3932 39.0418 69.5944 44.0006 69.4878 44.4627C69.4344 44.6937 69.4878 45.1381 69.6122 45.4402C69.7544 45.7424 72.2426 48.3729 75.1753 51.2699L80.4895 56.5664H81.2715C82.018 56.5664 82.0891 56.5131 84.5241 54.1137C85.8749 52.7807 87.1012 51.4477 87.2434 51.1811C87.8122 50.0969 86.9413 48.7461 85.6616 48.7461C85.004 48.7461 84.8262 48.8705 83.1022 50.559L81.2538 52.3719L79.9919 51.11L78.7122 49.8303L79.9208 48.5684C81.1116 47.342 81.1294 47.2887 81.0405 46.56C80.8983 45.5824 80.2762 45.0137 79.2809 45.0137C78.6411 45.0137 78.4456 45.1381 77.3792 46.1689L76.1883 47.3064L74.962 46.0801L73.7356 44.8359L75.5485 43.0053C77.077 41.4412 77.3614 41.068 77.3614 40.5881C77.3614 39.1662 76.1706 38.2775 74.962 38.793Z" fill="white"/>
<path d="M41.3701 42.241C41.0857 42.3832 39.735 43.5918 38.402 44.9604C36.0025 47.3953 35.9492 47.4664 35.9492 48.2129V48.9949L41.459 54.5047C46.8621 59.9256 46.9688 60.0322 47.6797 60.0322C48.3729 60.0322 48.4973 59.9256 51.0922 57.3129C53.7049 54.718 53.8115 54.5936 53.8115 53.8826C53.8115 53.2783 53.7049 53.065 53.2072 52.6207C52.6918 52.1586 52.5141 52.0875 51.892 52.1764C51.2699 52.2652 50.9322 52.5141 49.4215 54.0248L47.6797 55.7666L46.4355 54.5225L45.1914 53.2961L46.1512 52.3008C46.6666 51.7676 47.1998 51.1455 47.3064 50.9322C47.9107 49.7592 47.0043 48.3906 45.6357 48.3906C45.2803 48.3906 44.8182 48.7105 43.9295 49.5814L42.6854 50.7723L41.4057 49.4926L40.1438 48.2307L41.9566 46.3822C43.5918 44.7293 43.7695 44.4627 43.7695 43.8939C43.7695 43.4318 43.6273 43.0941 43.2896 42.7209C42.6854 42.0633 42.0811 41.9211 41.3701 42.241Z" fill="white"/>
<path d="M66.3951 48.3903C63.9068 48.8879 62.165 51.0563 62.1828 53.6335C62.2005 55.6774 62.5204 56.1928 66.1285 59.8186C69.8253 63.5333 70.4474 63.942 72.4736 63.9243C75.4595 63.8887 77.539 61.8803 77.6812 58.8411C77.7523 57.668 77.6812 57.3481 77.2902 56.4772C76.6503 55.0731 75.9216 54.4333 74.9796 54.4333C73.4333 54.4333 72.7579 56.0151 73.7177 57.4192C74.1976 58.1124 74.2865 59.0188 73.9665 59.6231C73.6644 60.1741 72.6513 60.5295 71.9581 60.2985C71.1939 60.0497 65.8796 54.7176 65.7019 54.0067C65.5242 53.278 66.0218 52.336 66.7683 52.0338C67.4437 51.7495 67.9591 51.8383 68.7945 52.4249C69.6654 53.0114 70.5007 52.9581 71.1583 52.3182C71.8693 51.5895 71.887 50.5942 71.1583 49.8299C70.1275 48.728 67.9591 48.0881 66.3951 48.3903Z" fill="white"/>
<path d="M32.1635 52.3006C31.0082 52.6028 30.4039 53.0116 28.6799 54.6823C26.9381 56.3708 26.4938 57.0639 26.6537 57.8282C26.707 58.1303 28.5733 60.121 32.2346 63.7823C38.9352 70.4829 38.2242 70.1807 40.9436 67.4969C41.9744 66.4661 42.9164 65.3463 43.183 64.8487C44.1606 62.9292 43.8406 60.6542 42.3654 59.019C41.5123 58.0592 40.126 57.2772 39.2906 57.2772C38.8996 57.2772 38.7752 57.1706 38.6863 56.7795C38.1354 54.1491 36.2158 52.3895 33.7453 52.2118C33.2477 52.1762 32.5367 52.2118 32.1635 52.3006ZM34.474 56.0508C34.9361 56.4418 35.2738 57.2772 35.1494 57.7926C35.0961 58.0592 34.6873 58.6813 34.2608 59.1612L33.4787 60.0321L32.199 58.7524L30.9016 57.4727L31.417 56.904C32.2701 55.9975 32.9455 55.642 33.6031 55.7487C33.9408 55.802 34.3141 55.9442 34.474 56.0508ZM39.7705 61.3651C40.0193 61.6317 40.126 61.9694 40.126 62.5204C40.126 63.2313 40.0371 63.409 39.2906 64.1555L38.4375 65.0086L37.1934 63.7645L35.9492 62.5381L36.6246 61.845C37.7799 60.6186 38.8641 60.4586 39.7705 61.3651Z" fill="white"/>
<path d="M57.455 56.3354C56.4775 56.6908 55.9798 57.9172 56.442 58.8059C56.6019 59.0902 59.0547 61.6496 61.934 64.4934C65.8974 68.4391 67.2838 69.701 67.7103 69.8076C68.8834 70.0565 70.0564 68.8834 69.8076 67.7104C69.7009 67.2838 68.439 65.8975 64.4933 61.934C61.6496 59.0547 59.108 56.602 58.8414 56.4598C58.3437 56.2109 57.9172 56.1576 57.455 56.3354Z" fill="white"/>
<path d="M52.3008 61.845C51.6965 62.0583 51.0033 62.6271 49.5104 64.1023C47.5553 66.0218 47.502 66.1107 47.502 66.8572V67.657L52.7096 72.8823C55.5533 75.7439 58.1127 78.2144 58.3793 78.3566C59.9611 79.1919 61.6141 77.6279 60.8143 76.0638C60.7076 75.8505 59.7301 74.7841 58.6637 73.6999C56.0332 71.0339 56.1576 70.9628 60.7254 72.5091C64.44 73.7532 64.9732 73.8066 65.6309 72.9712C65.8441 72.6868 65.9863 72.2425 65.9863 71.8337C65.9863 70.6784 65.5242 70.3585 62.3428 69.3099L59.499 68.3501V66.946C59.499 65.773 59.4102 65.382 59.0014 64.5288C58.3971 63.3025 57.2063 62.2005 56.0865 61.8273C55.0557 61.4718 53.3494 61.4896 52.3008 61.845ZM55.1623 65.2753C55.34 65.382 55.6244 65.7197 55.7844 66.0218C56.2109 66.8216 55.9799 67.5681 55.0557 68.4745L54.2559 69.2566L53.0117 68.0302L51.7498 66.7861L52.6385 65.9329C53.3494 65.2575 53.6338 65.0976 54.167 65.0976C54.5225 65.0976 54.9668 65.1864 55.1623 65.2753Z" fill="white"/>
<path d="M44.0361 70.483C42.8097 70.8918 42.4898 71.1229 40.6236 72.9713C38.633 74.9264 38.3664 75.4774 38.8462 76.4016C39.0062 76.686 41.4589 79.2453 44.3382 82.0891C48.3017 86.0348 49.688 87.2967 50.1146 87.4033C51.2877 87.6522 52.4607 86.4791 52.1941 85.3061C52.123 84.9151 51.4476 84.0975 50.0257 82.6578L47.964 80.5428L48.9593 79.5297C50.239 78.2145 50.5589 77.5568 50.6656 76.0106C50.7722 74.3576 50.399 73.2024 49.3681 72.0649C48.0529 70.6074 45.7423 69.932 44.0361 70.483ZM46.2578 74.0733C46.9154 74.411 47.1464 74.8375 47.1464 75.6729C47.1464 76.2061 46.9865 76.4904 46.3111 77.2014L45.458 78.0901L44.2138 76.8459L42.9875 75.584L43.6806 74.8553C44.7293 73.7711 45.3335 73.5934 46.2578 74.0733Z" fill="white"/>
<g clip-path="url(#clip2_127_183)">
<path d="M-7.99994 -231.4C-15.3333 -228.734 -23.2 -222.334 -26.9333 -215.934C-30.5333 -209.8 -30.6666 -209.134 -31.0666 -185.667L-31.5999 -161.534L-41.0666 -159.134C-56.2666 -155.267 -74.5333 -148.067 -93.0666 -138.734L-110.267 -130.067L-125.867 -145.534C-134.933 -154.334 -143.6 -161.8 -146.533 -163C-149.333 -164.2 -155.067 -165.134 -159.467 -165.134C-172.667 -165.267 -178.267 -161.667 -204.8 -135.934C-230.533 -110.867 -232.933 -107.4 -232.933 -94.2002C-232.933 -82.2002 -229.2 -75.6669 -213.2 -59.5335L-199.067 -45.4002L-205.2 -34.4669C-213.6 -19.6669 -220.8 -3.00021 -226.667 15.2664L-231.6 30.7331L-253.2 31.2664C-278 31.7998 -283.467 33.5331 -292.4 43.6664C-300.133 52.4665 -300.667 55.7998 -300.667 93.7998C-300.667 126.6 -300.533 127.933 -297.467 134.333C-295.733 137.933 -292.267 142.866 -289.867 145.266C-281.867 152.866 -277.067 154.066 -252.4 154.733L-230.133 155.266L-228.533 162.2C-224.533 179.266 -212.667 208.333 -202.533 226.066L-198.8 232.333L-214.4 248.066C-231.733 265.666 -234.267 270.2 -234.267 282.6C-234.4 295.4 -231.333 300.066 -205.867 326.2C-180.533 352.2 -176.133 355.266 -163.467 355.266C-150.533 355.266 -144.933 351.8 -125.067 331.933L-107.333 314.333L-114.933 306.733C-119.2 302.466 -123.2 299 -123.867 299C-124.667 299 -132.8 306.466 -142 315.666C-155.867 329.4 -159.6 332.333 -162.8 332.333C-166 332.333 -170.133 328.866 -187.6 311.266C-199.067 299.8 -209.067 289 -209.867 287.4C-213.067 281.133 -211.733 279 -192 259C-168.8 235.533 -169.2 236.6 -179.733 218.466C-192.667 196.333 -202.533 172.466 -206.667 153C-207.867 147.133 -209.467 140.6 -210.267 138.6C-213.067 131.4 -214.933 131 -244 131C-272.667 130.866 -274 130.6 -276.667 123.8C-278.533 118.733 -278.4 65.3998 -276.533 61.2664C-274 55.7998 -270.133 54.9998 -244.667 54.9998C-231.6 54.9998 -219.333 54.4665 -217.467 53.6664C-213.2 52.0665 -212 49.6664 -208 34.1998C-202.133 11.6664 -191.6 -12.4669 -178.667 -33.4002C-169.2 -48.4669 -169.2 -48.4669 -191.333 -71.0002C-206.8 -86.7336 -210 -90.6002 -210 -93.9336C-210 -97.2669 -206.8 -101 -190.133 -117.534C-168.8 -138.734 -164.4 -142.334 -159.6 -142.334C-157.333 -142.334 -150.533 -136.734 -136.267 -123C-113.067 -100.734 -112.933 -100.6 -99.8666 -108.467C-75.5999 -123.134 -47.2 -134.467 -21.8666 -139.667C-8.93329 -142.2 -8.93329 -142.334 -8.39993 -175.4C-7.99994 -203.534 -7.99994 -203.934 -4.79996 -206.467C-1.99994 -208.867 0.800049 -209 30.0001 -209H61.8667L64.5334 -205.534C67.2001 -202.2 67.3334 -200.2 67.3334 -175.667C67.3334 -142.867 66.5334 -144.334 86.9334 -139C111.6 -132.6 134.4 -122.867 155.733 -109.667C170.8 -100.2 170.667 -100.2 193.333 -122.334C208.667 -137.267 213.067 -141 216.133 -141C219.067 -141 223.733 -137.134 240.4 -120.734C260.933 -100.2 264.667 -95.6669 264.667 -90.2002C264.667 -88.2002 258.4 -80.8669 245.333 -67.6669C222.533 -44.4669 222.667 -44.8669 231.867 -29.1335C246 -5.00021 255.867 19.3998 260.8 42.1998C264.8 60.7331 263.867 60.3331 297.333 60.3331C324.133 60.3331 324.533 60.3331 328.267 63.5331L332 66.7331L332.4 95.7998C332.667 111.8 332.533 126.2 332 127.933C331.6 129.533 330 132.2 328.4 133.666C325.733 136.2 323.733 136.333 300.4 136.333C266.667 136.333 268.267 135.4 262.533 157.4C256.667 179.8 246.133 204.066 233.333 224.733C223.867 239.8 223.867 239.8 246 262.333C261.867 278.333 264.667 281.933 264.667 285.4C264.667 288.866 261.733 292.333 243.867 309.933C232.533 321.133 221.867 331 220.267 331.933C213.2 335.933 210.8 334.6 191.867 316.066L173.867 298.466L166 306.333L158 314.333L175.6 332.066C185.333 341.8 195.2 351 197.467 352.466C207.733 358.866 225.067 357.8 235.067 350.066C237.6 348.2 249.2 337.266 260.933 325.8C284.8 302.733 287.6 298.466 287.6 285.666C287.6 273.533 283.867 267 267.867 250.866L253.733 236.733L259.867 225.8C268.267 211 275.467 194.333 281.467 175.933L286.4 160.333H305.333C330 160.333 336.267 158.6 345.333 149.266C349.467 145 352.667 140.2 353.733 136.866C354.8 133.133 355.333 120.466 355.333 97.5331C355.333 64.7331 355.2 63.3998 352.133 56.9998C348.267 48.7331 343.333 44.0665 334.667 40.1998C328.933 37.5331 325.067 37.1331 305.733 36.5998L283.467 35.9331L281.867 29.1331C278.133 12.9998 266.8 -14.7336 256.533 -33.4002L252.267 -41.1335L267.733 -56.7336C284.533 -73.8002 287.333 -78.4669 287.467 -89.5335C287.733 -102.467 285.333 -106.734 269.2 -124.2C248.267 -146.867 235.067 -159.4 229.467 -161.667C222.667 -164.6 209.333 -164.2 202 -160.867C198.267 -159.267 190.667 -153 182 -144.334L168 -130.334L147.333 -140.734C128.533 -150.2 110.667 -157.134 95.7334 -161L90.0001 -162.467V-184.734C90.0001 -205.267 89.7334 -207.534 86.8 -213.8C83.2001 -221.667 74.8 -229.267 67.4667 -231.4C60.8 -233.4 -2.39993 -233.4 -7.99994 -231.4Z" fill="black"/>
<path d="M12.0001 -82.8669C-2.93326 -81.4002 -21.4666 -77.5335 -33.5999 -73.6669C-96.7999 -52.8669 -142 -2.2002 -154.933 62.7332C-158.533 80.9998 -158.133 115.533 -154.133 133.666C-145.733 171.8 -129.867 199.266 -97.8666 231C-72.1333 256.466 -63.8666 269.8 -57.3333 295.4L-54.3999 307.266L-61.3333 314.2C-70.7999 323.666 -73.1999 330.867 -72.3999 348.733C-71.8666 363.4 -70.5333 367.4 -63.0666 375.8C-60.7999 378.333 -55.9999 381.933 -52.5333 383.8C-46.2666 386.867 -46.1333 387.133 -47.4666 391C-49.7333 397.4 -48.3999 422.733 -45.5999 428.6C-41.8666 436.067 -32.9333 444.067 -25.0666 447C-18.3999 449.533 -14.6666 449.667 27.3334 449.667C69.4668 449.667 73.0668 449.533 79.7334 447C88.6667 443.667 96.0001 436.733 100.133 427.8C102.8 422.067 103.333 418.867 103.333 407.4C103.333 399.933 102.8 392.333 102 390.466C100.8 387.267 101.2 386.733 107.2 383.667C115.2 379.667 122.533 371.4 125.2 363.267C128.133 355 128 336.066 125.067 327.533C123.6 323.266 120.533 318.733 116 314.066L109.067 307.266L112 295.4C118.533 269.8 126.8 256.6 152.533 231.133C185.333 198.6 201.6 169.667 209.6 129.933C212.8 114.066 212.8 78.8665 209.6 62.7332C202.267 25.6665 184.133 -7.40018 157.467 -32.7335C124 -64.3335 82.2668 -81.2668 33.4668 -82.8669C24.6667 -83.1335 14.9334 -83.1335 12.0001 -82.8669ZM63.3334 -56.4669C122.4 -43.0002 164.533 -5.66684 181.733 48.3332C187.067 65.1331 188.8 77.5331 188.8 97.6665C188.8 116.733 186.4 131.266 180.4 148.066C171.2 174.2 160.4 190.466 137.333 213C127.6 222.466 116.533 234.466 112.8 239.533C101.467 254.6 92.9334 273.666 88.2668 294.333L86.4001 302.333L75.6001 302.733L64.6667 303.133V241.8V180.6L81.0668 180.066C100.133 179.4 107.6 176.866 116.4 167.933C135.733 148.2 129.867 116.333 104.8 104.066C99.6001 101.4 96.5334 101 84.6667 101C72.5334 101 69.7334 101.4 64.1334 104.2C48.9334 111.666 42.0001 123.4 40.9334 143.266L40.2668 156.333H27.2001H14.0001V144.6C14.0001 137.4 13.2001 130.466 11.8667 126.6C9.20009 118.6 0.666748 109.133 -7.86659 104.6C-13.9999 101.4 -15.9999 101 -28.6666 101C-40.7999 101 -43.5999 101.4 -49.1999 104.2C-73.9999 116.466 -79.7333 147.933 -60.9333 167.4C-58.2666 170.2 -52.9333 174.066 -49.3333 176.066C-43.4666 179.133 -40.7999 179.533 -25.5999 180.066L-8.66658 180.6V241.933V303.133L-20.2666 302.733L-31.7333 302.333L-33.5999 294.333C-38.2666 273.666 -46.7999 254.6 -58.1333 239.533C-61.8666 234.466 -72.9333 222.466 -82.6666 213C-110.933 185.533 -125.467 159.667 -132 125.4C-134.667 111.266 -134.8 83.2665 -132.133 68.3332C-120.4 1.93314 -68.3999 -47.4002 1.33342 -58.2002C12.6667 -60.0669 52.8001 -58.8669 63.3334 -56.4669ZM-21.8666 124.333C-19.3333 125 -15.4666 127.533 -13.1999 129.8C-9.59991 133.533 -9.33325 134.733 -8.79991 145.133L-8.39992 156.333H-22.7999C-34.9333 156.333 -37.9999 155.933 -41.1999 153.8C-46.1333 150.466 -48.5333 146.2 -48.6666 140.6C-48.7999 127.933 -36.3999 120.333 -21.8666 124.333ZM96.6667 126.333C104.133 130.2 106.933 140.866 102.533 148.333C98.5334 154.866 94.4001 156.333 78.8001 156.333H64.6667V146.333C64.6667 132.333 68.5334 125.933 78.1334 123.933C83.0668 122.866 92.2668 124.066 96.6667 126.333ZM40.6667 241.666V303H27.3334H14.0001V241.666V180.333H27.3334H40.6667V241.666ZM99.6001 330.867C103.867 334.733 104 335 104 345.666C104 356.333 103.867 356.6 99.6001 360.466L95.3334 364.333H27.3334H-40.6666L-44.9333 360.466C-49.1999 356.6 -49.3333 356.333 -49.3333 345.666C-49.3333 335 -49.1999 334.733 -44.9333 330.867L-40.6666 327H27.3334H95.3334L99.6001 330.867ZM76.1334 392.867C80.4001 397.133 80.6667 397.933 80.6667 406.2C80.6667 415.8 78.4001 421.933 74.1334 424.333C70.5334 426.2 -15.8666 426.2 -19.4666 424.333C-23.7332 421.933 -25.9999 415.8 -25.9999 406.2C-25.9999 397.933 -25.7332 397.133 -21.4666 392.867L-16.9333 388.333H27.3334H71.6001L76.1334 392.867Z" fill="black"/>
</g>
</g>
<defs>
<filter id="filter0_f_127_183" x="0" y="0" width="111" height="111" filterUnits="userSpaceOnUse" color-interpolation-filters="sRGB">
<feFlood flood-opacity="0" result="BackgroundImageFix"/>
<feBlend mode="normal" in="SourceGraphic" in2="BackgroundImageFix" result="shape"/>
<feGaussianBlur stdDeviation="5" result="effect1_foregroundBlur_127_183"/>
</filter>
<clipPath id="clip0_127_183">
<rect width="91" height="91" fill="white" transform="translate(10 10)"/>
</clipPath>
<clipPath id="clip1_127_183">
<rect width="91" height="91" fill="white" transform="translate(10 10)"/>
</clipPath>
<clipPath id="clip2_127_183">
<rect width="682.667" height="682.667" fill="white" transform="translate(-314 -233)"/>
</clipPath>
</defs>
</svg>
