<svg width="112" height="98" viewBox="0 0 112 98" fill="none" xmlns="http://www.w3.org/2000/svg">
<g opacity="0.5" clip-path="url(#clip0_127_186)" filter="url(#filter0_f_127_186)">
<path d="M49.0281 10.7805C48.3992 11.4453 48.5609 12.6312 49.2976 12.9906C49.4773 13.0805 52.55 13.1883 56.1437 13.2422L62.6484 13.332L49.1898 21.0945L35.7133 28.875H23.3867H11.0422L10.5211 29.3961C9.87421 30.043 9.85624 30.7078 10.4492 31.3008L10.8805 31.75H22.7578H34.6172V39.6562V47.5625H27.0883C19.757 47.5625 19.5594 47.5805 19.0922 47.9398C18.4273 48.4609 18.4273 49.5391 19.0922 50.0602C19.5594 50.4195 19.757 50.4375 27.0883 50.4375H34.6172V58.3437V66.25H22.7578H10.8805L10.4492 66.6992C9.85624 67.2922 9.87421 67.957 10.5211 68.6039L11.0422 69.125H23.3867H35.7133L51.7594 78.3789C62.7742 84.7398 67.9492 87.6328 68.3086 87.6328C68.65 87.6328 70.5187 86.6625 73.7711 84.7758C76.5023 83.1945 83.7078 79.0437 89.7812 75.5398C95.8547 72.0359 101.102 68.9273 101.425 68.6219L102 68.1008V49V29.8992L101.425 29.3602C101.102 29.0727 93.6445 24.6883 84.8398 19.6031L68.8476 10.3672H59.1265H49.4055L49.0281 10.7805ZM83.1148 21.9391C95.064 28.857 97.6516 30.4023 97.382 30.5461C97.2023 30.6539 95.3156 31.732 93.1953 32.9719C91.075 34.2117 89.2422 35.218 89.1344 35.218C88.9906 35.218 67.5719 23.0711 60.7976 19.1359L59.5758 18.4172L63.8523 15.9375C66.2062 14.5719 68.2187 13.4578 68.3265 13.4758C68.4344 13.4937 75.0828 17.3031 83.1148 21.9391ZM70.5547 28.0305C77.814 32.1812 84.3187 35.8828 84.9836 36.2781L86.2234 36.9969L82.9891 38.8656L79.7367 40.7344L65.0922 32.343C57.0242 27.725 50.4476 23.8797 50.4656 23.8078C50.5015 23.718 51.9031 22.8555 53.5742 21.8851C56.1078 20.4297 56.6828 20.1601 56.9883 20.3039C57.1859 20.4117 63.2953 23.8797 70.5547 28.0305ZM62.1633 33.9961L76.8617 42.3875L72.675 44.8133C70.375 46.1609 68.4164 47.257 68.3086 47.257C68.1828 47.257 39.307 30.6719 38.9656 30.4023C38.8937 30.3305 47.2672 25.4969 47.375 25.5508C47.4289 25.5867 54.0773 29.3781 62.1633 33.9961ZM98.9094 66.8789C98.6578 67.1125 70.3391 83.4461 69.9258 83.6078C69.6922 83.7156 69.6562 81.7211 69.6922 66.7711L69.7461 49.8266L74.0226 47.3648L78.2812 44.9031V51.1922V57.4812L78.8203 58.0203C79.2515 58.4516 79.4851 58.5414 79.8805 58.4695C80.3836 58.3617 89.6375 53.1328 90.1406 52.6477C90.3742 52.432 90.4281 51.282 90.5 45.1008L90.5898 37.7875L94.8125 35.3617L99.0351 32.918L99.0891 49.8086C99.125 63.1594 99.0711 66.7352 98.9094 66.8789ZM52.2445 41.3992L66.7812 49.7906V66.7352V83.6977L66.3859 83.482C66.1523 83.3562 60.0609 79.8523 52.8375 75.6836C45.614 71.4969 39.1992 67.8133 38.6062 67.4898L37.4922 66.8789V49.9344C37.4922 40.6266 37.5461 33.0078 37.6 33.0078C37.6719 33.0078 44.2664 36.7812 52.2445 41.3992ZM87.625 45.1727V50.8867L85.2531 52.2344C83.9414 52.9711 82.5039 53.8156 82.0187 54.0852L81.1562 54.5883L81.1922 48.8742L81.2461 43.1781L84.3906 41.3453C86.1156 40.3391 87.5531 39.4945 87.5891 39.4945C87.607 39.4766 87.625 42.0461 87.625 45.1727Z" fill="white"/>
<path d="M40.6367 40.8243C40.0977 41.3454 40.0438 42.154 40.5109 42.6751C40.8164 43.0345 54.5984 51.0665 55.4789 51.39C56.3414 51.7314 57.4375 50.9587 57.4375 50.0064C57.4375 49.5212 56.7008 48.8384 55.3352 48.0657C54.5625 47.6345 51.2563 45.7118 47.968 43.8251C44.4102 41.7767 41.8047 40.3751 41.5352 40.3751C41.2836 40.3751 40.8703 40.5728 40.6367 40.8243Z" fill="white"/>
<path d="M40.6367 47.4727C40.1515 47.9399 40.0437 48.7485 40.4211 49.2336C40.7265 49.6289 48.0578 53.8516 48.6687 53.9774C49.0461 54.0492 49.2797 53.9594 49.7289 53.5102C50.1961 53.025 50.2679 52.8453 50.1781 52.3602C50.1062 52.0547 49.9625 51.6953 49.8367 51.5875C49.2257 50.9946 42.0203 47.0235 41.5711 47.0235C41.2836 47.0235 40.8882 47.2032 40.6367 47.4727Z" fill="white"/>
</g>
<g clip-path="url(#clip1_127_186)">
<path d="M49.0281 10.7805C48.3992 11.4453 48.5609 12.6312 49.2976 12.9906C49.4773 13.0805 52.55 13.1883 56.1437 13.2422L62.6484 13.332L49.1898 21.0945L35.7133 28.875H23.3867H11.0422L10.5211 29.3961C9.87421 30.043 9.85624 30.7078 10.4492 31.3008L10.8805 31.75H22.7578H34.6172V39.6562V47.5625H27.0883C19.757 47.5625 19.5594 47.5805 19.0922 47.9398C18.4273 48.4609 18.4273 49.5391 19.0922 50.0602C19.5594 50.4195 19.757 50.4375 27.0883 50.4375H34.6172V58.3437V66.25H22.7578H10.8805L10.4492 66.6992C9.85624 67.2922 9.87421 67.957 10.5211 68.6039L11.0422 69.125H23.3867H35.7133L51.7594 78.3789C62.7742 84.7398 67.9492 87.6328 68.3086 87.6328C68.65 87.6328 70.5187 86.6625 73.7711 84.7758C76.5023 83.1945 83.7078 79.0437 89.7812 75.5398C95.8547 72.0359 101.102 68.9273 101.425 68.6219L102 68.1008V49V29.8992L101.425 29.3602C101.102 29.0727 93.6445 24.6883 84.8398 19.6031L68.8476 10.3672H59.1265H49.4055L49.0281 10.7805ZM83.1148 21.9391C95.064 28.857 97.6516 30.4023 97.382 30.5461C97.2023 30.6539 95.3156 31.732 93.1953 32.9719C91.075 34.2117 89.2422 35.218 89.1344 35.218C88.9906 35.218 67.5719 23.0711 60.7976 19.1359L59.5758 18.4172L63.8523 15.9375C66.2062 14.5719 68.2187 13.4578 68.3265 13.4758C68.4344 13.4937 75.0828 17.3031 83.1148 21.9391ZM70.5547 28.0305C77.814 32.1812 84.3187 35.8828 84.9836 36.2781L86.2234 36.9969L82.9891 38.8656L79.7367 40.7344L65.0922 32.343C57.0242 27.725 50.4476 23.8797 50.4656 23.8078C50.5015 23.718 51.9031 22.8555 53.5742 21.8851C56.1078 20.4297 56.6828 20.1601 56.9883 20.3039C57.1859 20.4117 63.2953 23.8797 70.5547 28.0305ZM62.1633 33.9961L76.8617 42.3875L72.675 44.8133C70.375 46.1609 68.4164 47.257 68.3086 47.257C68.1828 47.257 39.307 30.6719 38.9656 30.4023C38.8937 30.3305 47.2672 25.4969 47.375 25.5508C47.4289 25.5867 54.0773 29.3781 62.1633 33.9961ZM98.9094 66.8789C98.6578 67.1125 70.3391 83.4461 69.9258 83.6078C69.6922 83.7156 69.6562 81.7211 69.6922 66.7711L69.7461 49.8266L74.0226 47.3648L78.2812 44.9031V51.1922V57.4812L78.8203 58.0203C79.2515 58.4516 79.4851 58.5414 79.8805 58.4695C80.3836 58.3617 89.6375 53.1328 90.1406 52.6477C90.3742 52.432 90.4281 51.282 90.5 45.1008L90.5898 37.7875L94.8125 35.3617L99.0351 32.918L99.0891 49.8086C99.125 63.1594 99.0711 66.7352 98.9094 66.8789ZM52.2445 41.3992L66.7812 49.7906V66.7352V83.6977L66.3859 83.482C66.1523 83.3562 60.0609 79.8523 52.8375 75.6836C45.614 71.4969 39.1992 67.8133 38.6062 67.4898L37.4922 66.8789V49.9344C37.4922 40.6266 37.5461 33.0078 37.6 33.0078C37.6719 33.0078 44.2664 36.7812 52.2445 41.3992ZM87.625 45.1727V50.8867L85.2531 52.2344C83.9414 52.9711 82.5039 53.8156 82.0187 54.0852L81.1562 54.5883L81.1922 48.8742L81.2461 43.1781L84.3906 41.3453C86.1156 40.3391 87.5531 39.4945 87.5891 39.4945C87.607 39.4766 87.625 42.0461 87.625 45.1727Z" fill="white"/>
<path d="M40.6367 40.8243C40.0977 41.3454 40.0438 42.154 40.5109 42.6751C40.8164 43.0345 54.5984 51.0665 55.4789 51.39C56.3414 51.7314 57.4375 50.9587 57.4375 50.0064C57.4375 49.5212 56.7008 48.8384 55.3352 48.0657C54.5625 47.6345 51.2563 45.7118 47.968 43.8251C44.4102 41.7767 41.8047 40.3751 41.5352 40.3751C41.2836 40.3751 40.8703 40.5728 40.6367 40.8243Z" fill="white"/>
<path d="M40.6367 47.4727C40.1515 47.9399 40.0437 48.7485 40.4211 49.2336C40.7265 49.6289 48.0578 53.8516 48.6687 53.9774C49.0461 54.0492 49.2797 53.9594 49.7289 53.5102C50.1961 53.025 50.2679 52.8453 50.1781 52.3602C50.1062 52.0547 49.9625 51.6953 49.8367 51.5875C49.2257 50.9946 42.0203 47.0235 41.5711 47.0235C41.2836 47.0235 40.8882 47.2032 40.6367 47.4727Z" fill="white"/>
</g>
<defs>
<filter id="filter0_f_127_186" x="0" y="-7" width="112" height="112" filterUnits="userSpaceOnUse" color-interpolation-filters="sRGB">
<feFlood flood-opacity="0" result="BackgroundImageFix"/>
<feBlend mode="normal" in="SourceGraphic" in2="BackgroundImageFix" result="shape"/>
<feGaussianBlur stdDeviation="5" result="effect1_foregroundBlur_127_186"/>
</filter>
<clipPath id="clip0_127_186">
<rect width="92" height="92" fill="white" transform="translate(10 3)"/>
</clipPath>
<clipPath id="clip1_127_186">
<rect width="92" height="92" fill="white" transform="translate(10 3)"/>
</clipPath>
</defs>
</svg>
