<svg width="321" height="74" viewBox="0 0 321 74" fill="none" xmlns="http://www.w3.org/2000/svg">
<path d="M91.1436 71.6721C91.4672 71.4017 91.7909 71.1314 92.0606 70.861C92.3303 70.5907 92.654 70.2663 92.9237 69.8337C93.3552 69.0767 93.6789 68.0494 93.9486 66.8058C94.1644 65.5081 94.3262 63.7779 94.3262 61.6151V18.3593C94.3262 13.7634 93.7328 10.7355 92.4921 9.27557C92.2764 9.11336 92.1145 8.95115 91.9527 8.73487C91.7909 8.57266 91.5751 8.35638 91.3054 8.19417H104.036C102.849 8.95115 101.932 9.92441 101.231 11.0599C101.123 11.2761 101.015 11.5465 100.853 11.925C100.745 12.3035 100.638 12.7901 100.53 13.4389C100.476 14.0878 100.368 14.8988 100.314 15.8721C100.26 16.8453 100.26 18.0349 100.26 19.3866V61.507C100.26 64.4808 100.584 66.6436 101.231 67.9413C101.932 69.0227 102.849 69.7796 103.928 70.2663C104.144 70.3744 104.414 70.4825 104.737 70.5366C105.061 70.5907 105.546 70.6988 106.14 70.7529C106.733 70.807 107.542 70.861 108.567 70.861C109.538 70.861 110.779 70.9151 112.289 70.9151H117.198C119.895 70.9151 122.215 70.807 124.103 70.6448C125.991 70.4825 127.501 70.1041 128.688 69.6174C129.227 69.4011 129.875 69.1308 130.576 68.7523C131.277 68.3738 131.979 67.9413 132.68 67.4546C133.327 66.968 133.974 66.4273 134.568 65.8325C135.161 65.2918 135.593 64.6971 135.862 64.2104L133.543 71.6721H91.1436ZM148.809 8.19417C148.539 8.41045 148.269 8.62673 148 8.89708C147.73 9.11336 147.514 9.38371 147.352 9.65406C146.22 11.0058 145.68 13.8715 145.68 18.3052V61.561C145.68 63.9942 145.788 65.6703 145.95 66.7517C146.112 67.7791 146.274 68.536 146.381 68.9686C146.867 70.1041 147.676 71.0232 148.863 71.6721H136.726C137.319 71.3477 137.804 70.9151 138.182 70.3203C139.261 68.9145 139.8 65.9948 139.8 61.561V18.3052C139.8 15.8721 139.746 14.1959 139.585 13.1686C139.423 12.1413 139.261 11.4384 139.099 11.0058C138.614 9.87034 137.804 8.95115 136.672 8.19417H148.809ZM152.369 39.8791C152.369 35.2291 153.07 30.9035 154.419 26.8482C155.768 22.793 157.763 19.3325 160.353 16.3587C162.942 13.3849 166.125 11.0599 169.955 9.32964C173.785 7.59941 178.154 6.78836 183.117 6.78836H184.951C187.486 6.78836 189.698 7.00464 191.478 7.49127C193.258 7.9779 194.768 8.51859 196.063 9.05929C197.304 9.59999 198.383 10.1407 199.246 10.6273C200.109 11.1139 200.972 11.3302 201.835 11.3302C202.806 11.3302 203.615 11.1139 204.37 10.6273C205.072 10.1948 205.719 9.54592 206.258 8.84301L207.121 20.9546C206.097 19.0081 204.856 17.2238 203.399 15.6017C201.943 13.9796 200.325 12.5738 198.598 11.3302C196.872 10.1407 194.984 9.16743 193.042 8.51859C191.046 7.86976 188.997 7.49127 186.893 7.49127C182.038 7.49127 177.884 8.35638 174.486 10.0866C171.087 11.8168 168.282 14.1959 166.179 17.1698C164.021 20.1436 162.51 23.55 161.539 27.4971C160.568 31.3901 160.083 35.4994 160.083 39.8791C160.083 44.2046 160.568 48.368 161.539 52.261C162.51 56.2081 164.021 59.6686 166.179 62.5884C168.336 65.5622 171.087 67.9413 174.486 69.6715C177.884 71.4558 182.038 72.3209 186.893 72.3209C190.075 72.3209 193.096 71.7262 195.847 70.5366C198.598 69.3471 200.918 67.6709 202.806 65.4V48.4762C202.806 45.9889 202.698 44.2587 202.536 43.2854C202.374 42.2581 202.105 41.5552 201.835 41.1227C201.35 40.0953 200.648 39.2843 199.731 38.6355H211.599C211.221 38.9058 210.951 39.1761 210.736 39.5006C210.52 39.7709 210.304 40.0953 210.088 40.4198C209.657 41.2308 209.333 42.2581 209.171 43.5558C209.009 44.8535 208.902 46.4756 208.902 48.5302V61.507C208.902 63.9401 209.009 65.6163 209.171 66.6977C209.333 67.725 209.495 68.482 209.603 68.9145C210.088 70.05 210.897 70.9692 212.084 71.618H199.893C200.81 70.9692 201.457 70.2663 201.835 69.5093C202.213 68.7523 202.482 67.8331 202.644 66.7517C202.105 67.1302 201.457 67.6709 200.648 68.3738C199.839 69.0767 198.76 69.7796 197.466 70.4825C196.117 71.1854 194.445 71.7802 192.449 72.3209C190.453 72.8616 187.918 73.132 185.005 73.186H183.117C178.154 73.186 173.785 72.3209 169.955 70.6448C166.125 68.9145 162.942 66.5895 160.353 63.5616C157.763 60.5878 155.768 57.0192 154.419 52.9639C153.07 48.9628 152.369 44.5831 152.369 39.8791ZM227.242 8.19417C226.109 8.95115 225.3 9.92441 224.815 11.168C224.653 11.6006 224.491 12.3035 224.329 13.2767C224.168 14.25 224.114 15.9802 224.114 18.3593V38.9599H258.691V18.3593C258.691 15.8721 258.637 14.1418 258.475 13.1686C258.314 12.1413 258.152 11.4384 257.936 11.0058C257.451 9.87034 256.695 8.95115 255.616 8.19417H267.808C266.675 8.89708 265.866 9.92441 265.38 11.2221C265.218 11.6546 265.056 12.3575 264.895 13.3308C264.733 14.3041 264.679 15.9802 264.679 18.3593V61.507C264.679 63.9942 264.787 65.7785 264.949 66.7517C265.11 67.725 265.326 68.4279 265.488 68.8605C265.866 69.9418 266.675 70.861 267.915 71.5639H255.724C255.994 71.4017 256.21 71.1854 256.426 70.9692C256.641 70.7529 256.857 70.4825 257.127 70.2122C258.206 68.8064 258.745 65.8866 258.745 61.4529V39.6628H224.114V61.561C224.114 64.0482 224.221 65.8325 224.383 66.8058C224.545 67.7791 224.707 68.482 224.815 68.9145C225.3 70.05 226.109 70.9692 227.296 71.618H215.105C215.698 71.2936 216.184 70.861 216.562 70.2663C217.64 68.8605 218.18 65.9407 218.18 61.507V18.3593C218.18 15.8721 218.126 14.1418 217.964 13.1686C217.802 12.1413 217.64 11.4384 217.479 11.0058C216.993 9.87034 216.184 8.95115 215.051 8.19417H227.242ZM269.156 8.19417H320.402L320.618 14.9529C319.971 13.7634 319.215 12.7901 318.352 12.0331C317.489 11.2762 316.572 10.6273 315.547 10.1948C314.522 9.7622 313.444 9.43778 312.257 9.2215C311.07 9.05929 309.883 8.95115 308.643 8.95115H297.422V61.8855C297.422 66.4814 298.016 69.4011 299.256 70.6988C299.58 71.1314 299.958 71.4558 300.389 71.6721H288.522C289.169 71.1854 289.655 70.6448 290.032 70.05C291.057 68.6982 291.543 65.9948 291.543 61.8855V8.89708H281.833C280.484 8.89708 279.244 8.95115 278.057 9.00522C276.87 9.05929 275.791 9.27557 274.766 9.65406C273.741 9.97848 272.77 10.5192 271.907 11.168C270.99 11.8168 270.127 12.736 269.372 13.9256C269.264 14.0337 269.21 14.1418 269.156 14.3041C269.102 14.4122 269.048 14.5744 268.94 14.6825L269.156 8.19417Z" fill="white"/>
<path fill-rule="evenodd" clip-rule="evenodd" d="M13.2495 15.007L16.3243 31.0116C17.4031 36.4727 18.4281 41.8796 19.5069 47.3407C19.399 47.3407 19.2372 47.3407 19.1293 47.3407C17.9965 47.3407 17.0255 47.8273 16.3243 48.5843C16.4861 39.9331 14.4902 24.9558 12.6022 15.1692C12.818 15.1151 13.0337 15.061 13.2495 15.007Z" fill="white"/>
<path fill-rule="evenodd" clip-rule="evenodd" d="M21.7726 53.8831V57.1273C21.7726 59.4523 21.8805 61.0744 22.0423 61.9936C22.2041 62.9128 22.3659 63.5616 22.4738 63.9401C22.9054 64.9674 23.6606 65.8326 24.7394 66.4814H13.5193C14.0587 66.211 14.4902 65.7244 14.8678 65.2378C15.8388 63.9401 16.3243 61.2907 16.3243 57.1814V53.775C17.0256 54.532 17.9965 55.0186 19.1294 55.0186C20.1543 54.9645 21.1253 54.586 21.7726 53.8831Z" fill="white"/>
<path fill-rule="evenodd" clip-rule="evenodd" d="M23.1751 35.6075V36.2023H35.1505C36.7688 36.2023 38.2792 36.4186 39.6817 36.8512C41.0842 37.2837 42.271 38.2029 43.242 39.6087V31.6064C42.8104 32.4715 42.3789 33.0122 41.8934 33.3907C40.383 34.8506 38.1173 35.6075 35.0965 35.6075H23.1751Z" fill="white"/>
<path fill-rule="evenodd" clip-rule="evenodd" d="M3.21609 67.0762H35.3123L38.3871 70.1041V71.6721H0.141327V70.1041L3.21609 67.0762Z" fill="white"/>
<path fill-rule="evenodd" clip-rule="evenodd" d="M47.3956 71.8343H112.775L83.3757 20.2517L55.0555 29.4977L47.3956 71.8343Z" fill="#FDEB04"/>
<path fill-rule="evenodd" clip-rule="evenodd" d="M16.3243 27.2808L20.2621 47.5029C20.8555 47.6651 21.341 47.9895 21.7726 48.4221V8.62673H41.1382C43.242 8.62673 45.13 9.11336 46.7483 10.1407C48.3666 11.168 49.6073 12.6279 50.4164 14.5203H52.0347C51.0098 13.8174 50.3085 12.682 50.3085 11.3302C50.3085 9.87034 51.1177 8.57267 52.3584 7.92383H13.4653C14.4902 8.62674 15.2454 9.49185 15.677 10.5192C15.8388 10.8977 16.3243 11.7087 16.3243 12.682V27.2808Z" fill="white"/>
<path d="M54.1385 14.4122C55.8366 14.4122 57.2132 13.0324 57.2132 11.3302C57.2132 9.62809 55.8366 8.24825 54.1385 8.24825C52.4403 8.24825 51.0637 9.62809 51.0637 11.3302C51.0637 13.0324 52.4403 14.4122 54.1385 14.4122Z" fill="white"/>
<path d="M19.1293 54.2075C20.8275 54.2075 22.2041 52.8277 22.2041 51.1256C22.2041 49.4234 20.8275 48.0436 19.1293 48.0436C17.4312 48.0436 16.0546 49.4234 16.0546 51.1256C16.0546 52.8277 17.4312 54.2075 19.1293 54.2075Z" fill="white"/>
<path d="M12.1167 14.4122C13.8149 14.4122 15.1915 13.0324 15.1915 11.3302C15.1915 9.62809 13.8149 8.24825 12.1167 8.24825C10.4186 8.24825 9.04196 9.62809 9.04196 11.3302C9.04196 13.0324 10.4186 14.4122 12.1167 14.4122Z" fill="white"/>
<path fill-rule="evenodd" clip-rule="evenodd" d="M60.5038 13.2227L58.6158 7.92384L60.1262 4.62558L62.4997 3.76047L65.7903 5.27442L67.7322 10.5733C70.1057 9.70814 71.5622 11.3302 73.3423 12.6279L83.3757 19.9814C83.9691 20.414 83.16 21.4413 82.4048 21.7116L56.566 31.1738C55.7568 31.4442 54.5161 31.2279 54.678 30.4709L57.5909 18.4134C58.0764 16.3047 58.1303 14.0878 60.5038 13.2227Z" fill="white"/>
<path d="M54.1385 11.3302C52.1965 1.21918 59.8025 0.408135 61.0971 3.70639" stroke="white" stroke-width="2.2677" stroke-miterlimit="10"/>
<path d="M55.1095 30.4709C55.1095 28.5244 55.4871 26.7401 56.2423 25.1721C56.9975 23.6041 57.9685 22.2523 59.2092 21.1169C60.4499 20.0355 61.8524 19.1703 63.4707 18.5215C65.089 17.9267 66.7073 17.6023 68.4335 17.6023C70.9688 17.6023 73.612 18.2512 76.4171 19.5488C77.8735 20.3058 79.0603 20.6302 79.8694 20.6302C80.8404 20.6302 81.6496 20.3058 82.3508 19.6029L82.4587 19.4948V28.7407C82.2429 28.1459 82.0272 27.5512 81.8114 27.0645C81.5956 26.5779 81.3798 26.0913 81.1101 25.6047C80.4628 24.4151 79.7076 23.3878 78.7366 22.4686C77.8196 21.5494 76.7947 20.7924 75.6619 20.1436C74.5291 19.4948 73.3423 19.0081 72.1016 18.6296C70.8609 18.3052 69.6202 18.089 68.3795 18.089C67.1388 18.089 65.8981 18.3052 64.7114 18.7378C63.4707 19.1703 62.3918 19.8192 61.4748 20.6302C60.5578 21.4413 59.8026 22.4686 59.2092 23.6581C58.6158 24.8477 58.3461 26.1994 58.3461 27.6593C58.3461 29.6599 58.9934 31.4983 60.288 33.1203C61.8524 35.2291 65.5745 37.9866 71.5082 41.4471C73.8278 42.7988 75.7697 43.9884 77.3341 45.0157C78.8985 46.043 80.1392 46.9081 80.9483 47.611C82.3508 48.8547 83.4836 50.3686 84.4007 52.1529C85.3177 53.9372 85.7492 55.8297 85.7492 57.9384C85.7492 61.6151 84.4007 64.8052 81.7575 67.5087C79.0603 70.2663 75.6079 71.618 71.3464 71.618C69.7281 71.618 68.3256 71.4558 67.0849 71.0773C65.8442 70.7529 64.4417 70.3204 62.9313 69.7797C61.313 69.1849 60.1262 68.8064 59.4789 68.6442C58.7776 68.5361 58.3461 68.4279 58.0224 68.4279C57.4291 68.4279 56.9436 68.5361 56.566 68.7523C56.1884 68.9686 55.9186 69.1849 55.6489 69.4012V60.2093C55.8647 60.9663 56.1344 61.6151 56.3502 62.2099C56.566 62.8047 56.8357 63.3454 57.1054 63.832C57.7527 65.0215 58.5619 66.0488 59.6407 66.914C60.6657 67.7791 61.8524 68.5901 63.0931 69.1849C64.3338 69.8337 65.6284 70.2663 66.977 70.6448C68.3256 70.9692 69.5663 71.1314 70.807 71.1314C72.2095 71.1314 73.5581 70.9151 74.9067 70.4826C76.2552 70.05 77.442 69.4012 78.4669 68.536C79.4918 67.6709 80.3549 66.6436 80.9483 65.4C81.5417 64.1564 81.8653 62.6424 81.8653 60.9663C81.8653 59.182 81.3798 57.5058 80.4628 55.9378C79.5458 54.3698 78.413 53.0721 77.1183 52.0448C76.5789 51.5581 75.6619 50.9093 74.3672 50.0442C73.0726 49.1791 71.2925 48.0977 69.1347 46.7459C66.977 45.5023 65.1429 44.3128 63.6865 43.2855C62.23 42.2581 61.0433 41.339 60.1262 40.636C58.5619 39.3924 57.3212 37.9326 56.4581 36.2564C55.595 34.5802 55.1095 32.6878 55.1095 30.4709Z" fill="white"/>
</svg>
