<svg width="111" height="111" viewBox="0 0 111 111" fill="none" xmlns="http://www.w3.org/2000/svg">
<g opacity="0.5" clip-path="url(#clip0_127_184)" filter="url(#filter0_f_127_184)">
<path d="M81.9824 10.391C81.5025 10.5154 79.3697 12.5416 72.3848 19.5266L63.4092 28.4844H42.6676H21.926L21.8726 21.6238L21.8193 14.7633L21.3928 14.4256C20.5574 13.7502 17.998 14.1057 15.7053 15.2076C14.0523 16.0074 12.0439 18.0336 11.1908 19.7221C9.91112 22.317 9.98222 20.2553 10.0355 53.1006L10.0889 82.6045L10.5154 83.8486C11.3508 86.3369 13.3592 88.683 15.5808 89.785C17.8736 90.9047 16.8961 90.8691 39.9482 90.8691H60.9209L56.9752 94.8148C52.6029 99.1871 52.3896 99.507 53.2428 100.36L53.7049 100.822H76.917H100.129L100.556 100.378L101 99.9514V76.8281C101 62.3605 100.929 53.5805 100.822 53.385C100.733 53.2072 100.431 52.9584 100.129 52.8518C99.3826 52.5318 98.9383 52.834 96.7344 55.0379L94.8681 56.9219L94.7793 43.1475L94.6904 29.3908L94.2816 28.982C93.8906 28.5732 93.8195 28.5732 88.523 28.5199L83.1554 28.4666L87.1012 24.5209C89.6428 21.9615 91.1357 20.3441 91.3135 19.9176C91.6867 18.9934 91.6512 17.5537 91.2246 16.665C91.0113 16.2207 89.7672 14.8521 88.1498 13.2525C86.017 11.1553 85.2883 10.5332 84.7373 10.3732C83.8842 10.1422 82.8355 10.1422 81.9824 10.391ZM86.4613 15.2965C89.5717 18.4068 89.5539 18.3002 87.4033 20.4686L85.8926 21.9971L82.8355 18.9223L79.7607 15.8652L81.2892 14.3545C83.4576 12.2039 83.351 12.1861 86.4613 15.2965ZM19.2422 37.2822C19.2422 57.4018 19.2422 57.6328 19.5976 57.9883C20.273 58.6637 21.375 58.3793 21.7127 57.4373C21.8549 57.0463 21.9082 52.9584 21.9082 44.1072V31.3281H41.2279H60.5476L56.6908 35.2027C54.5758 37.3355 52.834 39.2018 52.834 39.3795C52.834 40.3393 53.7937 41.1035 54.6291 40.7658C54.8601 40.677 59.2146 36.4291 64.2978 31.3459L73.54 22.0859L76.5971 25.143L79.6719 28.2178L65.8619 42.0277L52.0342 55.8555L48.9771 52.7984L45.9023 49.7236L48.7461 46.8799C51.8387 43.7518 52.0164 43.4674 51.1455 42.6143C50.2746 41.7256 50.0435 41.8678 46.2933 45.6002L42.8453 49.0482L40.5881 55.4289L38.3308 61.8096L35.7892 61.8984C33.3898 61.9873 33.2299 62.0051 32.91 62.4139C32.4656 62.9648 32.4834 63.6402 32.9633 64.1557L33.3365 64.5645H52.3363H71.3361L71.7627 64.1201C72.2959 63.6047 72.3314 62.9826 71.8693 62.4139L71.5316 61.9873L58.0594 61.8984L44.6049 61.8096L48.5861 60.4232L52.5674 59.0191L66.4307 45.1736L80.2939 31.3281H86.2125H92.1133V45.4936V59.6768L82.3379 69.4521C73.8955 77.8945 72.5625 79.2986 72.5625 79.7607C72.5625 80.4539 73.1846 81.0938 73.8777 81.0938C74.3754 81.0938 75.7439 79.7785 86.3724 69.15L98.334 57.1885V63.0893V68.9723L96.841 69.0256C95.0992 69.1145 94.6015 69.3988 94.6015 70.3764C94.6015 71.4072 95.0637 71.6738 96.8232 71.6738H98.334V73.7178V75.7617H96.8765C95.1703 75.7617 94.6015 76.0994 94.6015 77.1125C94.6015 78.0723 95.2414 78.4277 96.9299 78.4277H98.334V80.4717V82.5156H96.8232C95.0637 82.5156 94.6015 82.7822 94.6015 83.8131C94.6015 84.7906 95.0992 85.075 96.841 85.1639L98.334 85.2172V87.1367V89.0562L96.841 89.1096C95.0992 89.1984 94.6015 89.4828 94.6015 90.4604C94.6015 91.4912 95.0637 91.7578 96.8232 91.7578H98.334V94.957V98.1562H77.859H57.3662L64.3512 91.1713C68.3146 87.2078 71.3183 84.0619 71.3183 83.8842C71.3183 83.4932 70.9984 82.8355 70.7141 82.6578C70.6074 82.5867 70.2519 82.5156 69.9142 82.5156C69.3633 82.5156 69.0256 82.7822 66.4307 85.3594L63.5691 88.2031H41.4412C17.6248 88.2031 18.3713 88.2387 16.5406 87.2967C15.492 86.7635 14.0523 85.2527 13.5014 84.1152C12.2039 81.467 12.5949 78.5877 14.55 76.1883C15.723 74.7309 18.2824 73.4512 20.0242 73.4512C20.6107 73.4512 20.9484 73.3445 21.3217 73.0246L21.8193 72.598V67.2482C21.8193 61.9873 21.8193 61.8984 21.4283 61.5252C20.9484 61.0453 20.0953 61.0098 19.5976 61.4541C19.26 61.7562 19.2422 61.9873 19.2422 66.2707V70.7674L18.4957 70.9629C16.3273 71.5316 15.0832 72.1359 13.5902 73.3979L12.666 74.1977V49.1549C12.666 31.8436 12.7193 23.7744 12.8615 23.0635C13.217 21.1439 14.4433 19.2066 15.9896 18.1402C16.9139 17.5182 18.2469 16.9494 18.8512 16.9316H19.2422V37.2822ZM81.0049 20.8418L84.0264 23.8633L82.7822 25.1074L81.5381 26.3516L78.481 23.2945L75.4062 20.2197L76.5971 19.0289C77.2547 18.3535 77.8412 17.8203 77.8945 17.8203C77.9478 17.8203 79.3519 19.1711 81.0049 20.8418ZM49.226 57.3129C49.1016 57.384 48.2662 57.7039 47.342 58.0061L45.689 58.557L44.4271 57.3129L43.183 56.0687L43.8584 54.167L44.5338 52.2652L46.9865 54.718C48.6572 56.3887 49.3682 57.224 49.226 57.3129Z" fill="white"/>
<path d="M81.7691 81.7691C74.5176 89.0207 74.1621 89.3939 74.1621 90.016C74.1621 90.5137 74.2688 90.7625 74.6242 91.0291C75.0863 91.4023 75.2818 91.4023 82.6223 91.4023C87.9721 91.4023 90.2648 91.349 90.6025 91.1891C90.8869 91.0646 91.118 90.7625 91.2424 90.3537C91.349 89.9449 91.4023 87.1012 91.3668 82.2846L91.3135 74.8375L90.8869 74.4998C90.6559 74.3221 90.2293 74.1621 89.9271 74.1621C89.4295 74.1621 88.5408 74.9975 81.7691 81.7691ZM88.7363 83.7598V88.7363H83.7242H78.6943L83.6709 83.7598C86.408 81.0227 88.6652 78.7832 88.683 78.7832C88.7186 78.7832 88.7363 81.0227 88.7363 83.7598Z" fill="white"/>
</g>
<g clip-path="url(#clip1_127_184)">
<path d="M81.9824 10.391C81.5025 10.5154 79.3697 12.5416 72.3848 19.5266L63.4092 28.4844H42.6676H21.926L21.8726 21.6238L21.8193 14.7633L21.3928 14.4256C20.5574 13.7502 17.998 14.1057 15.7053 15.2076C14.0523 16.0074 12.0439 18.0336 11.1908 19.7221C9.91112 22.317 9.98222 20.2553 10.0355 53.1006L10.0889 82.6045L10.5154 83.8486C11.3508 86.3369 13.3592 88.683 15.5808 89.785C17.8736 90.9047 16.8961 90.8691 39.9482 90.8691H60.9209L56.9752 94.8148C52.6029 99.1871 52.3896 99.507 53.2428 100.36L53.7049 100.822H76.917H100.129L100.556 100.378L101 99.9514V76.8281C101 62.3605 100.929 53.5805 100.822 53.385C100.733 53.2072 100.431 52.9584 100.129 52.8518C99.3826 52.5318 98.9383 52.834 96.7344 55.0379L94.8681 56.9219L94.7793 43.1475L94.6904 29.3908L94.2816 28.982C93.8906 28.5732 93.8195 28.5732 88.523 28.5199L83.1554 28.4666L87.1012 24.5209C89.6428 21.9615 91.1357 20.3441 91.3135 19.9176C91.6867 18.9934 91.6512 17.5537 91.2246 16.665C91.0113 16.2207 89.7672 14.8521 88.1498 13.2525C86.017 11.1553 85.2883 10.5332 84.7373 10.3732C83.8842 10.1422 82.8355 10.1422 81.9824 10.391ZM86.4613 15.2965C89.5717 18.4068 89.5539 18.3002 87.4033 20.4686L85.8926 21.9971L82.8355 18.9223L79.7607 15.8652L81.2892 14.3545C83.4576 12.2039 83.351 12.1861 86.4613 15.2965ZM19.2422 37.2822C19.2422 57.4018 19.2422 57.6328 19.5976 57.9883C20.273 58.6637 21.375 58.3793 21.7127 57.4373C21.8549 57.0463 21.9082 52.9584 21.9082 44.1072V31.3281H41.2279H60.5476L56.6908 35.2027C54.5758 37.3355 52.834 39.2018 52.834 39.3795C52.834 40.3393 53.7937 41.1035 54.6291 40.7658C54.8601 40.677 59.2146 36.4291 64.2978 31.3459L73.54 22.0859L76.5971 25.143L79.6719 28.2178L65.8619 42.0277L52.0342 55.8555L48.9771 52.7984L45.9023 49.7236L48.7461 46.8799C51.8387 43.7518 52.0164 43.4674 51.1455 42.6143C50.2746 41.7256 50.0435 41.8678 46.2933 45.6002L42.8453 49.0482L40.5881 55.4289L38.3308 61.8096L35.7892 61.8984C33.3898 61.9873 33.2299 62.0051 32.91 62.4139C32.4656 62.9648 32.4834 63.6402 32.9633 64.1557L33.3365 64.5645H52.3363H71.3361L71.7627 64.1201C72.2959 63.6047 72.3314 62.9826 71.8693 62.4139L71.5316 61.9873L58.0594 61.8984L44.6049 61.8096L48.5861 60.4232L52.5674 59.0191L66.4307 45.1736L80.2939 31.3281H86.2125H92.1133V45.4936V59.6768L82.3379 69.4521C73.8955 77.8945 72.5625 79.2986 72.5625 79.7607C72.5625 80.4539 73.1846 81.0938 73.8777 81.0938C74.3754 81.0938 75.7439 79.7785 86.3724 69.15L98.334 57.1885V63.0893V68.9723L96.841 69.0256C95.0992 69.1145 94.6015 69.3988 94.6015 70.3764C94.6015 71.4072 95.0637 71.6738 96.8232 71.6738H98.334V73.7178V75.7617H96.8765C95.1703 75.7617 94.6015 76.0994 94.6015 77.1125C94.6015 78.0723 95.2414 78.4277 96.9299 78.4277H98.334V80.4717V82.5156H96.8232C95.0637 82.5156 94.6015 82.7822 94.6015 83.8131C94.6015 84.7906 95.0992 85.075 96.841 85.1639L98.334 85.2172V87.1367V89.0562L96.841 89.1096C95.0992 89.1984 94.6015 89.4828 94.6015 90.4604C94.6015 91.4912 95.0637 91.7578 96.8232 91.7578H98.334V94.957V98.1562H77.859H57.3662L64.3512 91.1713C68.3146 87.2078 71.3183 84.0619 71.3183 83.8842C71.3183 83.4932 70.9984 82.8355 70.7141 82.6578C70.6074 82.5867 70.2519 82.5156 69.9142 82.5156C69.3633 82.5156 69.0256 82.7822 66.4307 85.3594L63.5691 88.2031H41.4412C17.6248 88.2031 18.3713 88.2387 16.5406 87.2967C15.492 86.7635 14.0523 85.2527 13.5014 84.1152C12.2039 81.467 12.5949 78.5877 14.55 76.1883C15.723 74.7309 18.2824 73.4512 20.0242 73.4512C20.6107 73.4512 20.9484 73.3445 21.3217 73.0246L21.8193 72.598V67.2482C21.8193 61.9873 21.8193 61.8984 21.4283 61.5252C20.9484 61.0453 20.0953 61.0098 19.5976 61.4541C19.26 61.7562 19.2422 61.9873 19.2422 66.2707V70.7674L18.4957 70.9629C16.3273 71.5316 15.0832 72.1359 13.5902 73.3979L12.666 74.1977V49.1549C12.666 31.8436 12.7193 23.7744 12.8615 23.0635C13.217 21.1439 14.4433 19.2066 15.9896 18.1402C16.9139 17.5182 18.2469 16.9494 18.8512 16.9316H19.2422V37.2822ZM81.0049 20.8418L84.0264 23.8633L82.7822 25.1074L81.5381 26.3516L78.481 23.2945L75.4062 20.2197L76.5971 19.0289C77.2547 18.3535 77.8412 17.8203 77.8945 17.8203C77.9478 17.8203 79.3519 19.1711 81.0049 20.8418ZM49.226 57.3129C49.1016 57.384 48.2662 57.7039 47.342 58.0061L45.689 58.557L44.4271 57.3129L43.183 56.0687L43.8584 54.167L44.5338 52.2652L46.9865 54.718C48.6572 56.3887 49.3682 57.224 49.226 57.3129Z" fill="white"/>
<path d="M81.7691 81.7691C74.5176 89.0207 74.1621 89.3939 74.1621 90.016C74.1621 90.5137 74.2688 90.7625 74.6242 91.0291C75.0863 91.4023 75.2818 91.4023 82.6223 91.4023C87.9721 91.4023 90.2648 91.349 90.6025 91.1891C90.8869 91.0646 91.118 90.7625 91.2424 90.3537C91.349 89.9449 91.4023 87.1012 91.3668 82.2846L91.3135 74.8375L90.8869 74.4998C90.6559 74.3221 90.2293 74.1621 89.9271 74.1621C89.4295 74.1621 88.5408 74.9975 81.7691 81.7691ZM88.7363 83.7598V88.7363H83.7242H78.6943L83.6709 83.7598C86.408 81.0227 88.6652 78.7832 88.683 78.7832C88.7186 78.7832 88.7363 81.0227 88.7363 83.7598Z" fill="white"/>
</g>
<defs>
<filter id="filter0_f_127_184" x="0" y="0" width="111" height="111" filterUnits="userSpaceOnUse" color-interpolation-filters="sRGB">
<feFlood flood-opacity="0" result="BackgroundImageFix"/>
<feBlend mode="normal" in="SourceGraphic" in2="BackgroundImageFix" result="shape"/>
<feGaussianBlur stdDeviation="5" result="effect1_foregroundBlur_127_184"/>
</filter>
<clipPath id="clip0_127_184">
<rect width="91" height="91" fill="white" transform="translate(10 10)"/>
</clipPath>
<clipPath id="clip1_127_184">
<rect width="91" height="91" fill="white" transform="translate(10 10)"/>
</clipPath>
</defs>
</svg>
