<svg width="110" height="112" viewBox="0 0 110 112" fill="none" xmlns="http://www.w3.org/2000/svg">
<g opacity="0.5" filter="url(#filter0_f_127_185)">
<path d="M50.2383 10.2154C49.25 10.5748 48.1898 11.4373 47.6867 12.2998C47.2016 13.1264 47.1836 13.2162 47.1297 16.3787L47.0578 19.6311L45.782 19.9545C43.7336 20.4756 41.2719 21.4459 38.7742 22.7037L36.4562 23.8717L34.3539 21.7873C33.132 20.6014 31.9641 19.5951 31.5688 19.4334C31.1914 19.2717 30.4187 19.1459 29.8258 19.1459C28.0469 19.128 27.2922 19.6131 23.7164 23.0811C20.2484 26.4592 19.925 26.9264 19.925 28.7053C19.925 30.3225 20.4281 31.2029 22.5844 33.3772L24.4891 35.2819L23.6625 36.7553C22.5305 38.7498 21.5602 40.9959 20.7695 43.4576L20.1047 45.542L17.1937 45.6139C13.8516 45.6858 13.1148 45.9194 11.9109 47.285C10.8687 48.4709 10.7969 48.9201 10.7969 54.0412C10.7969 58.4615 10.8148 58.6412 11.2281 59.5037C11.4617 59.9889 11.9289 60.6537 12.2523 60.9772C13.3305 62.0014 13.9773 62.1631 17.3016 62.253L20.3023 62.3248L20.518 63.2592C21.057 65.5592 22.6562 69.4764 24.0219 71.8662L24.525 72.7108L22.4227 74.8311C20.0867 77.203 19.7453 77.8139 19.7453 79.485C19.7273 81.21 20.1406 81.8389 23.5727 85.3608C26.9867 88.8647 27.5797 89.278 29.2867 89.278C31.0297 89.278 31.7844 88.8108 34.4617 86.1334L36.8516 83.7615L35.8273 82.7373C35.2523 82.1623 34.7133 81.6951 34.6234 81.6951C34.5156 81.6951 33.4195 82.7014 32.1797 83.9412C30.3109 85.792 29.8078 86.1873 29.3766 86.1873C28.9453 86.1873 28.3883 85.7201 26.0344 83.3483C24.4891 81.803 23.1414 80.3475 23.0336 80.1319C22.6023 79.2873 22.782 78.9998 25.4414 76.3045C28.568 73.142 28.5141 73.2858 27.0945 70.842C25.3516 67.8592 24.0219 64.6428 23.4648 62.0194C23.3031 61.2287 23.0875 60.3483 22.9797 60.0787C22.6023 59.1084 22.3508 59.0545 18.4336 59.0545C14.5703 59.0365 14.3906 59.0006 14.0312 58.0842C13.7797 57.4014 13.7977 50.2139 14.0492 49.6569C14.3906 48.9201 14.9117 48.8123 18.3438 48.8123C20.1047 48.8123 21.7578 48.7405 22.0094 48.6326C22.5844 48.417 22.7461 48.0936 23.2852 46.0092C24.0758 42.9725 25.4953 39.7201 27.2383 36.899C28.5141 34.8686 28.5141 34.8686 25.5312 31.8319C23.4469 29.7115 23.0156 29.1904 23.0156 28.7412C23.0156 28.292 23.4469 27.7889 25.693 25.5608C28.568 22.7037 29.1609 22.2186 29.8078 22.2186C30.1133 22.2186 31.0297 22.9733 32.9523 24.824C36.0789 27.8248 36.0969 27.8428 37.8578 26.7826C41.1281 24.8061 44.9555 23.2787 48.3695 22.5779C50.1125 22.2365 50.1125 22.2186 50.1844 17.7623C50.2383 13.9709 50.2383 13.917 50.6695 13.5756C51.0469 13.2522 51.4242 13.2342 55.3594 13.2342H59.6539L60.0133 13.7014C60.3727 14.1506 60.3906 14.4201 60.3906 17.7264C60.3906 22.1467 60.2828 21.949 63.032 22.6678C66.3562 23.5303 69.4289 24.842 72.3039 26.6209C74.3344 27.8967 74.3164 27.8967 77.3711 24.9139C79.4375 22.9014 80.0305 22.3983 80.4437 22.3983C80.8391 22.3983 81.468 22.9194 83.7141 25.1295C86.4812 27.8967 86.9844 28.5076 86.9844 29.2444C86.9844 29.5139 86.1398 30.5022 84.3789 32.2811C81.3063 35.4076 81.3242 35.3537 82.5641 37.474C84.4688 40.7264 85.7984 44.0147 86.4633 47.0873C87.0023 49.585 86.8766 49.5311 91.3867 49.5311C94.9984 49.5311 95.0523 49.5311 95.5555 49.9623L96.0586 50.3936L96.1125 54.3108C96.1484 56.467 96.1305 58.4076 96.0586 58.6412C96.0047 58.8569 95.7891 59.2162 95.5734 59.4139C95.2141 59.7553 94.9445 59.7733 91.8 59.7733C87.2539 59.7733 87.4695 59.6475 86.6969 62.6123C85.9062 65.6311 84.4867 68.9014 82.7617 71.6865C81.4859 73.717 81.4859 73.717 84.4688 76.7537C86.607 78.91 86.9844 79.3951 86.9844 79.8623C86.9844 80.3295 86.5891 80.7967 84.1813 83.1686C82.6539 84.678 81.2164 86.0076 81.0008 86.1334C80.0484 86.6725 79.725 86.4928 77.1734 83.9951L74.7477 81.6233L73.6875 82.6834L72.6094 83.7615L74.9812 86.1514C76.293 87.4631 77.6227 88.703 77.9281 88.9006C79.3117 89.7631 81.6477 89.6194 82.9953 88.5772C83.3367 88.3256 84.9 86.8522 86.4812 85.3069C89.6977 82.1983 90.075 81.6233 90.075 79.8983C90.075 78.2631 89.5719 77.3826 87.4156 75.2084L85.5109 73.3037L86.3375 71.8303C87.4695 69.8358 88.4398 67.5897 89.2484 65.11L89.9133 63.0076H92.4648C95.7891 63.0076 96.6336 62.774 97.8555 61.5162C98.4125 60.9412 98.8438 60.2944 98.9875 59.8451C99.1312 59.342 99.2031 57.635 99.2031 54.5444C99.2031 50.124 99.1852 49.9444 98.7719 49.0819C98.2508 47.9678 97.5859 47.3389 96.418 46.8178C95.6453 46.4584 95.1242 46.4045 92.5187 46.3326L89.518 46.2428L89.3023 45.3264C88.7992 43.1522 87.2719 39.4147 85.8883 36.899L85.3133 35.8569L87.3977 33.7545C89.6617 31.4545 90.0391 30.8256 90.057 29.3342C90.093 27.5912 89.7695 27.0162 87.5953 24.6623C84.7742 21.6076 82.9953 19.9186 82.2406 19.6131C81.3242 19.2178 79.5273 19.2717 78.5391 19.7209C78.0359 19.9365 77.0117 20.7811 75.8438 21.949L73.957 23.8358L71.1719 22.4342C68.6383 21.1584 66.2305 20.224 64.218 19.7029L63.4453 19.5053V16.5045C63.4453 13.7373 63.4094 13.4318 63.0141 12.5873C62.5289 11.5272 61.3969 10.5029 60.4086 10.2154C59.5102 9.94592 50.993 9.94592 50.2383 10.2154Z" fill="white"/>
<path d="M52.9336 30.2328C50.9211 30.4305 48.4234 30.9516 46.7883 31.4726C38.2711 34.2758 32.1797 41.1039 30.4367 49.8547C29.9515 52.3164 30.0054 56.9703 30.5445 59.4141C31.6765 64.5531 33.8148 68.2547 38.1273 72.5312C41.5953 75.9633 42.7093 77.7602 43.5898 81.2102L43.9851 82.8094L43.0508 83.7437C41.775 85.0195 41.4515 85.9898 41.5593 88.3977C41.6312 90.3742 41.8109 90.9133 42.8172 92.0453C43.1226 92.3867 43.7695 92.8719 44.2367 93.1234C45.0812 93.5367 45.0992 93.5727 44.9195 94.0937C44.614 94.9562 44.7937 98.3703 45.1711 99.1609C45.6742 100.167 46.8781 101.245 47.9383 101.641C48.8367 101.982 49.3398 102 55 102C60.6781 102 61.1633 101.982 62.0617 101.641C63.2656 101.191 64.2539 100.257 64.8109 99.0531C65.1703 98.2805 65.2422 97.8492 65.2422 96.3039C65.2422 95.2977 65.1703 94.2734 65.0625 94.0219C64.9008 93.5906 64.9547 93.5187 65.7633 93.1055C66.8414 92.5664 67.8297 91.4523 68.189 90.3562C68.5843 89.2422 68.5664 86.6906 68.1711 85.5406C67.9734 84.9656 67.5601 84.3547 66.9492 83.7258L66.0148 82.8094L66.4101 81.2102C67.2906 77.7602 68.4047 75.9812 71.8726 72.5492C76.2929 68.1648 78.4851 64.2656 79.5633 58.9109C79.9945 56.7727 79.9945 52.0289 79.5633 49.8547C78.575 44.8594 76.1312 40.4031 72.5375 36.9891C68.0273 32.7305 62.4031 30.4484 55.8265 30.2328C54.6406 30.1969 53.3289 30.1969 52.9336 30.2328ZM59.8515 33.7906C67.8117 35.6055 73.4898 40.6367 75.8078 47.9141C76.5265 50.1781 76.7601 51.8492 76.7601 54.5625C76.7601 57.132 76.4367 59.0906 75.6281 61.3547C74.3883 64.8766 72.9328 67.0687 69.8242 70.1055C68.5125 71.3812 67.0211 72.9984 66.5179 73.6812C64.9906 75.7117 63.8406 78.2812 63.2117 81.0664L62.9601 82.1445L61.5047 82.1984L60.0312 82.2523V73.9867V65.7391L62.2414 65.6672C64.8109 65.5773 65.8172 65.2359 67.0031 64.032C69.6086 61.3727 68.8179 57.0781 65.4398 55.425C64.739 55.0656 64.3258 55.0117 62.7265 55.0117C61.0914 55.0117 60.714 55.0656 59.9593 55.443C57.9109 56.4492 56.9765 58.0305 56.8328 60.7078L56.7429 62.4687H54.982H53.2031V60.8875C53.2031 59.9172 53.0953 58.9828 52.9156 58.4617C52.5562 57.3836 51.4062 56.1078 50.2562 55.4969C49.4297 55.0656 49.1601 55.0117 47.4531 55.0117C45.8179 55.0117 45.4406 55.0656 44.6859 55.443C41.3437 57.0961 40.5711 61.3367 43.1047 63.9602C43.464 64.3375 44.1828 64.8586 44.6679 65.1281C45.4586 65.5414 45.8179 65.5953 47.8664 65.6672L50.1484 65.7391V74.0047V82.2523L48.5851 82.1984L47.0398 82.1445L46.7883 81.0664C46.1593 78.2812 45.0093 75.7117 43.482 73.6812C42.9789 72.9984 41.4875 71.3812 40.1758 70.1055C36.3664 66.4039 34.4078 62.918 33.5273 58.3C33.1679 56.3953 33.15 52.6219 33.5093 50.6094C35.0906 41.6609 42.0984 35.0125 51.4961 33.557C53.0234 33.3055 58.432 33.4672 59.8515 33.7906ZM48.3695 58.1562C48.7109 58.2461 49.232 58.5875 49.5375 58.893C50.0226 59.3961 50.0586 59.5578 50.1304 60.9594L50.1843 62.4687H48.2437C46.6086 62.4687 46.1953 62.4148 45.764 62.1273C45.0992 61.6781 44.7758 61.1031 44.7578 60.3484C44.7398 58.6414 46.4109 57.6172 48.3695 58.1562ZM64.3437 58.4258C65.35 58.9469 65.7273 60.3844 65.1343 61.3906C64.5953 62.2711 64.0383 62.4687 61.9359 62.4687H60.0312V61.1211C60.0312 59.2344 60.5523 58.3719 61.8461 58.1023C62.5109 57.9586 63.7508 58.1203 64.3437 58.4258ZM56.7968 73.9687V82.2344H55H53.2031V73.9687V65.7031H55H56.7968V73.9687ZM64.739 85.9898C65.314 86.5109 65.332 86.5469 65.332 87.9844C65.332 89.4219 65.314 89.4578 64.739 89.9789L64.164 90.5H55H45.8359L45.2609 89.9789C44.6859 89.4578 44.6679 89.4219 44.6679 87.9844C44.6679 86.5469 44.6859 86.5109 45.2609 85.9898L45.8359 85.4687H55H64.164L64.739 85.9898ZM61.5765 94.3453C62.1515 94.9203 62.1875 95.0281 62.1875 96.1422C62.1875 97.4359 61.882 98.2625 61.307 98.5859C60.8218 98.8375 49.1781 98.8375 48.6929 98.5859C48.1179 98.2625 47.8125 97.4359 47.8125 96.1422C47.8125 95.0281 47.8484 94.9203 48.4234 94.3453L49.0343 93.7344H55H60.9656L61.5765 94.3453Z" fill="white"/>
</g>
<path d="M50.2383 10.2154C49.25 10.5748 48.1898 11.4373 47.6867 12.2998C47.2016 13.1264 47.1836 13.2162 47.1297 16.3787L47.0578 19.6311L45.782 19.9545C43.7336 20.4756 41.2719 21.4459 38.7742 22.7037L36.4562 23.8717L34.3539 21.7873C33.132 20.6014 31.9641 19.5951 31.5688 19.4334C31.1914 19.2717 30.4187 19.1459 29.8258 19.1459C28.0469 19.128 27.2922 19.6131 23.7164 23.0811C20.2484 26.4592 19.925 26.9264 19.925 28.7053C19.925 30.3225 20.4281 31.2029 22.5844 33.3772L24.4891 35.2819L23.6625 36.7553C22.5305 38.7498 21.5602 40.9959 20.7695 43.4576L20.1047 45.542L17.1937 45.6139C13.8516 45.6858 13.1148 45.9194 11.9109 47.285C10.8687 48.4709 10.7969 48.9201 10.7969 54.0412C10.7969 58.4615 10.8148 58.6412 11.2281 59.5037C11.4617 59.9889 11.9289 60.6537 12.2523 60.9772C13.3305 62.0014 13.9773 62.1631 17.3016 62.253L20.3023 62.3248L20.518 63.2592C21.057 65.5592 22.6562 69.4764 24.0219 71.8662L24.525 72.7108L22.4227 74.8311C20.0867 77.203 19.7453 77.8139 19.7453 79.485C19.7273 81.21 20.1406 81.8389 23.5727 85.3608C26.9867 88.8647 27.5797 89.278 29.2867 89.278C31.0297 89.278 31.7844 88.8108 34.4617 86.1334L36.8516 83.7615L35.8273 82.7373C35.2523 82.1623 34.7133 81.6951 34.6234 81.6951C34.5156 81.6951 33.4195 82.7014 32.1797 83.9412C30.3109 85.792 29.8078 86.1873 29.3766 86.1873C28.9453 86.1873 28.3883 85.7201 26.0344 83.3483C24.4891 81.803 23.1414 80.3475 23.0336 80.1319C22.6023 79.2873 22.782 78.9998 25.4414 76.3045C28.568 73.142 28.5141 73.2858 27.0945 70.842C25.3516 67.8592 24.0219 64.6428 23.4648 62.0194C23.3031 61.2287 23.0875 60.3483 22.9797 60.0787C22.6023 59.1084 22.3508 59.0545 18.4336 59.0545C14.5703 59.0365 14.3906 59.0006 14.0312 58.0842C13.7797 57.4014 13.7977 50.2139 14.0492 49.6569C14.3906 48.9201 14.9117 48.8123 18.3438 48.8123C20.1047 48.8123 21.7578 48.7405 22.0094 48.6326C22.5844 48.417 22.7461 48.0936 23.2852 46.0092C24.0758 42.9725 25.4953 39.7201 27.2383 36.899C28.5141 34.8686 28.5141 34.8686 25.5312 31.8319C23.4469 29.7115 23.0156 29.1904 23.0156 28.7412C23.0156 28.292 23.4469 27.7889 25.693 25.5608C28.568 22.7037 29.1609 22.2186 29.8078 22.2186C30.1133 22.2186 31.0297 22.9733 32.9523 24.824C36.0789 27.8248 36.0969 27.8428 37.8578 26.7826C41.1281 24.8061 44.9555 23.2787 48.3695 22.5779C50.1125 22.2365 50.1125 22.2186 50.1844 17.7623C50.2383 13.9709 50.2383 13.917 50.6695 13.5756C51.0469 13.2522 51.4242 13.2342 55.3594 13.2342H59.6539L60.0133 13.7014C60.3727 14.1506 60.3906 14.4201 60.3906 17.7264C60.3906 22.1467 60.2828 21.949 63.032 22.6678C66.3562 23.5303 69.4289 24.842 72.3039 26.6209C74.3344 27.8967 74.3164 27.8967 77.3711 24.9139C79.4375 22.9014 80.0305 22.3983 80.4437 22.3983C80.8391 22.3983 81.468 22.9194 83.7141 25.1295C86.4812 27.8967 86.9844 28.5076 86.9844 29.2444C86.9844 29.5139 86.1398 30.5022 84.3789 32.2811C81.3063 35.4076 81.3242 35.3537 82.5641 37.474C84.4688 40.7264 85.7984 44.0147 86.4633 47.0873C87.0023 49.585 86.8766 49.5311 91.3867 49.5311C94.9984 49.5311 95.0523 49.5311 95.5555 49.9623L96.0586 50.3936L96.1125 54.3108C96.1484 56.467 96.1305 58.4076 96.0586 58.6412C96.0047 58.8569 95.7891 59.2162 95.5734 59.4139C95.2141 59.7553 94.9445 59.7733 91.8 59.7733C87.2539 59.7733 87.4695 59.6475 86.6969 62.6123C85.9062 65.6311 84.4867 68.9014 82.7617 71.6865C81.4859 73.717 81.4859 73.717 84.4688 76.7537C86.607 78.91 86.9844 79.3951 86.9844 79.8623C86.9844 80.3295 86.5891 80.7967 84.1813 83.1686C82.6539 84.678 81.2164 86.0076 81.0008 86.1334C80.0484 86.6725 79.725 86.4928 77.1734 83.9951L74.7477 81.6233L73.6875 82.6834L72.6094 83.7615L74.9812 86.1514C76.293 87.4631 77.6227 88.703 77.9281 88.9006C79.3117 89.7631 81.6477 89.6194 82.9953 88.5772C83.3367 88.3256 84.9 86.8522 86.4812 85.3069C89.6977 82.1983 90.075 81.6233 90.075 79.8983C90.075 78.2631 89.5719 77.3826 87.4156 75.2084L85.5109 73.3037L86.3375 71.8303C87.4695 69.8358 88.4398 67.5897 89.2484 65.11L89.9133 63.0076H92.4648C95.7891 63.0076 96.6336 62.774 97.8555 61.5162C98.4125 60.9412 98.8438 60.2944 98.9875 59.8451C99.1312 59.342 99.2031 57.635 99.2031 54.5444C99.2031 50.124 99.1852 49.9444 98.7719 49.0819C98.2508 47.9678 97.5859 47.3389 96.418 46.8178C95.6453 46.4584 95.1242 46.4045 92.5187 46.3326L89.518 46.2428L89.3023 45.3264C88.7992 43.1522 87.2719 39.4147 85.8883 36.899L85.3133 35.8569L87.3977 33.7545C89.6617 31.4545 90.0391 30.8256 90.057 29.3342C90.093 27.5912 89.7695 27.0162 87.5953 24.6623C84.7742 21.6076 82.9953 19.9186 82.2406 19.6131C81.3242 19.2178 79.5273 19.2717 78.5391 19.7209C78.0359 19.9365 77.0117 20.7811 75.8438 21.949L73.957 23.8358L71.1719 22.4342C68.6383 21.1584 66.2305 20.224 64.218 19.7029L63.4453 19.5053V16.5045C63.4453 13.7373 63.4094 13.4318 63.0141 12.5873C62.5289 11.5272 61.3969 10.5029 60.4086 10.2154C59.5102 9.94592 50.993 9.94592 50.2383 10.2154Z" fill="white"/>
<path d="M52.9336 30.2328C50.9211 30.4305 48.4234 30.9516 46.7883 31.4726C38.2711 34.2758 32.1797 41.1039 30.4367 49.8547C29.9515 52.3164 30.0054 56.9703 30.5445 59.4141C31.6765 64.5531 33.8148 68.2547 38.1273 72.5312C41.5953 75.9633 42.7093 77.7602 43.5898 81.2102L43.9851 82.8094L43.0508 83.7437C41.775 85.0195 41.4515 85.9898 41.5593 88.3977C41.6312 90.3742 41.8109 90.9133 42.8172 92.0453C43.1226 92.3867 43.7695 92.8719 44.2367 93.1234C45.0812 93.5367 45.0992 93.5727 44.9195 94.0937C44.614 94.9562 44.7937 98.3703 45.1711 99.1609C45.6742 100.167 46.8781 101.245 47.9383 101.641C48.8367 101.982 49.3398 102 55 102C60.6781 102 61.1633 101.982 62.0617 101.641C63.2656 101.191 64.2539 100.257 64.8109 99.0531C65.1703 98.2805 65.2422 97.8492 65.2422 96.3039C65.2422 95.2977 65.1703 94.2734 65.0625 94.0219C64.9008 93.5906 64.9547 93.5187 65.7633 93.1055C66.8414 92.5664 67.8297 91.4523 68.189 90.3562C68.5843 89.2422 68.5664 86.6906 68.1711 85.5406C67.9734 84.9656 67.5601 84.3547 66.9492 83.7258L66.0148 82.8094L66.4101 81.2102C67.2906 77.7602 68.4047 75.9812 71.8726 72.5492C76.2929 68.1648 78.4851 64.2656 79.5633 58.9109C79.9945 56.7727 79.9945 52.0289 79.5633 49.8547C78.575 44.8594 76.1312 40.4031 72.5375 36.9891C68.0273 32.7305 62.4031 30.4484 55.8265 30.2328C54.6406 30.1969 53.3289 30.1969 52.9336 30.2328ZM59.8515 33.7906C67.8117 35.6055 73.4898 40.6367 75.8078 47.9141C76.5265 50.1781 76.7601 51.8492 76.7601 54.5625C76.7601 57.132 76.4367 59.0906 75.6281 61.3547C74.3883 64.8766 72.9328 67.0687 69.8242 70.1055C68.5125 71.3812 67.0211 72.9984 66.5179 73.6812C64.9906 75.7117 63.8406 78.2812 63.2117 81.0664L62.9601 82.1445L61.5047 82.1984L60.0312 82.2523V73.9867V65.7391L62.2414 65.6672C64.8109 65.5773 65.8172 65.2359 67.0031 64.032C69.6086 61.3727 68.8179 57.0781 65.4398 55.425C64.739 55.0656 64.3258 55.0117 62.7265 55.0117C61.0914 55.0117 60.714 55.0656 59.9593 55.443C57.9109 56.4492 56.9765 58.0305 56.8328 60.7078L56.7429 62.4687H54.982H53.2031V60.8875C53.2031 59.9172 53.0953 58.9828 52.9156 58.4617C52.5562 57.3836 51.4062 56.1078 50.2562 55.4969C49.4297 55.0656 49.1601 55.0117 47.4531 55.0117C45.8179 55.0117 45.4406 55.0656 44.6859 55.443C41.3437 57.0961 40.5711 61.3367 43.1047 63.9602C43.464 64.3375 44.1828 64.8586 44.6679 65.1281C45.4586 65.5414 45.8179 65.5953 47.8664 65.6672L50.1484 65.7391V74.0047V82.2523L48.5851 82.1984L47.0398 82.1445L46.7883 81.0664C46.1593 78.2812 45.0093 75.7117 43.482 73.6812C42.9789 72.9984 41.4875 71.3812 40.1758 70.1055C36.3664 66.4039 34.4078 62.918 33.5273 58.3C33.1679 56.3953 33.15 52.6219 33.5093 50.6094C35.0906 41.6609 42.0984 35.0125 51.4961 33.557C53.0234 33.3055 58.432 33.4672 59.8515 33.7906ZM48.3695 58.1562C48.7109 58.2461 49.232 58.5875 49.5375 58.893C50.0226 59.3961 50.0586 59.5578 50.1304 60.9594L50.1843 62.4687H48.2437C46.6086 62.4687 46.1953 62.4148 45.764 62.1273C45.0992 61.6781 44.7758 61.1031 44.7578 60.3484C44.7398 58.6414 46.4109 57.6172 48.3695 58.1562ZM64.3437 58.4258C65.35 58.9469 65.7273 60.3844 65.1343 61.3906C64.5953 62.2711 64.0383 62.4687 61.9359 62.4687H60.0312V61.1211C60.0312 59.2344 60.5523 58.3719 61.8461 58.1023C62.5109 57.9586 63.7508 58.1203 64.3437 58.4258ZM56.7968 73.9687V82.2344H55H53.2031V73.9687V65.7031H55H56.7968V73.9687ZM64.739 85.9898C65.314 86.5109 65.332 86.5469 65.332 87.9844C65.332 89.4219 65.314 89.4578 64.739 89.9789L64.164 90.5H55H45.8359L45.2609 89.9789C44.6859 89.4578 44.6679 89.4219 44.6679 87.9844C44.6679 86.5469 44.6859 86.5109 45.2609 85.9898L45.8359 85.4687H55H64.164L64.739 85.9898ZM61.5765 94.3453C62.1515 94.9203 62.1875 95.0281 62.1875 96.1422C62.1875 97.4359 61.882 98.2625 61.307 98.5859C60.8218 98.8375 49.1781 98.8375 48.6929 98.5859C48.1179 98.2625 47.8125 97.4359 47.8125 96.1422C47.8125 95.0281 47.8484 94.9203 48.4234 94.3453L49.0343 93.7344H55H60.9656L61.5765 94.3453Z" fill="white"/>
<defs>
<filter id="filter0_f_127_185" x="-1" y="0" width="112" height="112" filterUnits="userSpaceOnUse" color-interpolation-filters="sRGB">
<feFlood flood-opacity="0" result="BackgroundImageFix"/>
<feBlend mode="normal" in="SourceGraphic" in2="BackgroundImageFix" result="shape"/>
<feGaussianBlur stdDeviation="5" result="effect1_foregroundBlur_127_185"/>
</filter>
</defs>
</svg>
