<svg width="98" height="108" viewBox="0 0 98 108" fill="none" xmlns="http://www.w3.org/2000/svg">
<g opacity="0.5" filter="url(#filter0_f_127_182)">
<path d="M43.8789 11.1446C35.0922 12.3485 27.6531 16.0141 21.4898 22.2134C12.4516 31.3055 8.58827 44.1891 11.1039 56.8751C12.1281 61.9782 15.0031 68.4649 17.9141 72.1485L18.4172 72.7954L15.7398 84.0977C14.2664 90.3509 13.1164 95.5798 13.1703 95.7954C13.3141 96.3524 13.9609 96.9274 14.5898 97.0352C15.0211 97.1251 17.4648 96.1009 27.0781 91.8063L39.0273 86.4876L41.0039 86.8649C44.3281 87.4938 46.3227 87.6555 49.8805 87.5477C55.6305 87.386 60.1047 86.3438 65.1898 83.9719C71.7484 80.8993 77.732 75.4907 81.6312 69.0759C86.8781 60.4868 88.4414 49.7235 85.9258 39.6969C83.0687 28.3227 74.8391 18.6915 64.0219 14.0016C61.3266 12.8337 58.2 11.8993 55.2891 11.3782C52.6117 10.911 46.5203 10.7673 43.8789 11.1446ZM52.7734 14.4868C60.7336 15.4571 67.8312 18.9251 73.4375 24.5313C78.9539 30.0477 82.35 36.8399 83.4102 44.5844C83.7875 47.2798 83.6977 52.6884 83.2305 55.2579C81.0203 67.4227 72.6648 77.5212 61.1648 81.9774C54.9477 84.3673 47.275 84.8524 40.5367 83.2712C39.3508 83.0016 38.7937 82.9477 38.4344 83.0735C38.1648 83.1634 33.3492 85.2837 27.743 87.7813C22.1187 90.261 17.4828 92.2555 17.4289 92.2196C17.393 92.1657 18.3633 87.8173 19.6211 82.5344C20.8609 77.2696 21.9031 72.6876 21.9031 72.3641C21.9031 71.9329 21.6156 71.4118 20.7351 70.2079C17.5547 65.9313 15.5242 61.3673 14.4101 55.9766C13.8351 53.2094 13.6195 48.268 13.943 45.4649C15.5781 31.629 24.8141 20.2727 37.8953 16.0141C40.2672 15.2415 42.2797 14.7743 44.5078 14.4868C46.2148 14.2712 51.0305 14.2532 52.7734 14.4868Z" fill="white"/>
<path d="M46.4844 24.9088C40.7164 25.4478 35.3977 28.0174 31.3188 32.258C28.1742 35.5463 26.2875 38.9604 25.1735 43.4705C24.5625 45.9143 24.4008 50.2268 24.8141 52.7783C26.4672 62.8588 34.0141 70.6572 44.1485 72.8135C46.2867 73.2627 51.1742 73.2627 53.3125 72.8135C63.0156 70.765 70.3469 63.5416 72.4492 54.0002C72.9164 51.8799 73.0063 47.4236 72.6469 45.1775C71.443 37.8463 67.0047 31.5752 60.3203 27.7299C58.9727 26.9572 56.511 26.0049 54.6242 25.5197C53.0789 25.1424 49.3953 24.6752 48.3711 24.7291C48.1735 24.7471 47.3289 24.8189 46.4844 24.9088ZM50.8867 28.3049C56.7625 28.9697 61.9735 31.9525 65.4594 36.6783C66.843 38.5471 67.7235 40.2361 68.4781 42.5182C69.3227 45.0338 69.5563 46.8307 69.4305 49.9213C69.3227 53.1377 68.8016 55.276 67.436 58.0432C64.6508 63.7033 59.907 67.5666 53.6899 69.2377C52.1445 69.651 51.6414 69.6869 48.7305 69.6869C45.8016 69.6869 45.3344 69.651 43.7352 69.2197C36.6016 67.315 31.1031 62.14 28.911 55.258C28.1383 52.8322 27.9047 50.9814 28.0305 48.0885C28.2461 42.7518 30.1149 38.3853 33.8703 34.5221C38.3625 29.8861 44.6516 27.6041 50.8867 28.3049Z" fill="white"/>
<path d="M46.1789 33.6056C44.9211 33.947 43.6813 34.5939 42.7289 35.4204C41.8844 36.1571 41.0938 37.5946 41.0938 38.4212C41.0938 39.6251 42.0641 40.5235 43.3578 40.5235C43.9328 40.5235 44.1664 40.3798 44.975 39.5532C46.2508 38.2235 46.8258 37.954 48.6047 37.8642C50.4195 37.7563 51.4438 38.0259 52.3961 38.8345C53.618 39.8946 53.8875 41.7634 53.0609 43.4704C52.6297 44.3509 51.9648 45.0517 49.2336 47.5493C47.5266 49.0767 46.6641 51.3048 46.6641 54.072C46.6641 56.3001 47.1133 56.8032 49.018 56.6595C50.5094 56.5517 50.707 56.3001 50.8688 54.2696C51.0844 51.3587 51.1023 51.3228 53.8516 48.6095C55.1992 47.2798 56.5648 45.7884 56.8703 45.3212C58.2539 43.147 58.6492 40.254 57.8227 38.1337C57.0141 36.0673 54.8039 34.2704 52.3063 33.6235C50.9047 33.2642 47.4906 33.2642 46.1789 33.6056Z" fill="white"/>
<path d="M47.3828 60.3248C46.5024 60.9358 46.125 61.5288 46.0172 62.5709C45.8735 63.7209 46.4305 64.9967 47.275 65.5178C48.0836 66.003 49.4852 65.985 50.2758 65.4459C51.0485 64.9248 51.6953 63.8108 51.6953 62.9663C51.6953 60.792 49.0719 59.1928 47.3828 60.3248Z" fill="white"/>
<path d="M73.8688 62.0678C73.5094 62.2834 73.2219 62.6608 73.0781 63.11C72.1078 66.0928 69.4844 69.1295 65.7648 71.5553C64.1297 72.6334 63.7344 73.0647 63.7344 73.8014C63.7344 74.3764 64.543 75.3467 65.082 75.4006C65.9086 75.4725 66.25 75.3287 67.6875 74.3764C71.2453 72.0045 73.7969 69.3452 75.3063 66.3983C76.3844 64.2959 76.6 63.5233 76.3125 62.8045C76.0789 62.2475 75.3422 61.7264 74.7492 61.7264C74.5695 61.7264 74.1742 61.8881 73.8688 62.0678Z" fill="white"/>
</g>
<path d="M43.8789 11.1446C35.0922 12.3485 27.6531 16.0141 21.4898 22.2134C12.4516 31.3055 8.58827 44.1891 11.1039 56.8751C12.1281 61.9782 15.0031 68.4649 17.9141 72.1485L18.4172 72.7954L15.7398 84.0977C14.2664 90.3509 13.1164 95.5798 13.1703 95.7954C13.3141 96.3524 13.9609 96.9274 14.5898 97.0352C15.0211 97.1251 17.4648 96.1009 27.0781 91.8063L39.0273 86.4876L41.0039 86.8649C44.3281 87.4938 46.3227 87.6555 49.8805 87.5477C55.6305 87.386 60.1047 86.3438 65.1898 83.9719C71.7484 80.8993 77.732 75.4907 81.6312 69.0759C86.8781 60.4868 88.4414 49.7235 85.9258 39.6969C83.0687 28.3227 74.8391 18.6915 64.0219 14.0016C61.3266 12.8337 58.2 11.8993 55.2891 11.3782C52.6117 10.911 46.5203 10.7673 43.8789 11.1446ZM52.7734 14.4868C60.7336 15.4571 67.8312 18.9251 73.4375 24.5313C78.9539 30.0477 82.35 36.8399 83.4102 44.5844C83.7875 47.2798 83.6977 52.6884 83.2305 55.2579C81.0203 67.4227 72.6648 77.5212 61.1648 81.9774C54.9477 84.3673 47.275 84.8524 40.5367 83.2712C39.3508 83.0016 38.7937 82.9477 38.4344 83.0735C38.1648 83.1634 33.3492 85.2837 27.743 87.7813C22.1187 90.261 17.4828 92.2555 17.4289 92.2196C17.393 92.1657 18.3633 87.8173 19.6211 82.5344C20.8609 77.2696 21.9031 72.6876 21.9031 72.3641C21.9031 71.9329 21.6156 71.4118 20.7351 70.2079C17.5547 65.9313 15.5242 61.3673 14.4101 55.9766C13.8351 53.2094 13.6195 48.268 13.943 45.4649C15.5781 31.629 24.8141 20.2727 37.8953 16.0141C40.2672 15.2415 42.2797 14.7743 44.5078 14.4868C46.2148 14.2712 51.0305 14.2532 52.7734 14.4868Z" fill="white"/>
<path d="M46.4844 24.9088C40.7164 25.4478 35.3977 28.0174 31.3188 32.258C28.1742 35.5463 26.2875 38.9604 25.1735 43.4705C24.5625 45.9143 24.4008 50.2268 24.8141 52.7783C26.4672 62.8588 34.0141 70.6572 44.1485 72.8135C46.2867 73.2627 51.1742 73.2627 53.3125 72.8135C63.0156 70.765 70.3469 63.5416 72.4492 54.0002C72.9164 51.8799 73.0063 47.4236 72.6469 45.1775C71.443 37.8463 67.0047 31.5752 60.3203 27.7299C58.9727 26.9572 56.511 26.0049 54.6242 25.5197C53.0789 25.1424 49.3953 24.6752 48.3711 24.7291C48.1735 24.7471 47.3289 24.8189 46.4844 24.9088ZM50.8867 28.3049C56.7625 28.9697 61.9735 31.9525 65.4594 36.6783C66.843 38.5471 67.7235 40.2361 68.4781 42.5182C69.3227 45.0338 69.5563 46.8307 69.4305 49.9213C69.3227 53.1377 68.8016 55.276 67.436 58.0432C64.6508 63.7033 59.907 67.5666 53.6899 69.2377C52.1445 69.651 51.6414 69.6869 48.7305 69.6869C45.8016 69.6869 45.3344 69.651 43.7352 69.2197C36.6016 67.315 31.1031 62.14 28.911 55.258C28.1383 52.8322 27.9047 50.9814 28.0305 48.0885C28.2461 42.7518 30.1149 38.3853 33.8703 34.5221C38.3625 29.8861 44.6516 27.6041 50.8867 28.3049Z" fill="white"/>
<path d="M46.1789 33.6056C44.9211 33.947 43.6813 34.5939 42.7289 35.4204C41.8844 36.1571 41.0938 37.5946 41.0938 38.4212C41.0938 39.6251 42.0641 40.5235 43.3578 40.5235C43.9328 40.5235 44.1664 40.3798 44.975 39.5532C46.2508 38.2235 46.8258 37.954 48.6047 37.8642C50.4195 37.7563 51.4438 38.0259 52.3961 38.8345C53.618 39.8946 53.8875 41.7634 53.0609 43.4704C52.6297 44.3509 51.9648 45.0517 49.2336 47.5493C47.5266 49.0767 46.6641 51.3048 46.6641 54.072C46.6641 56.3001 47.1133 56.8032 49.018 56.6595C50.5094 56.5517 50.707 56.3001 50.8688 54.2696C51.0844 51.3587 51.1023 51.3228 53.8516 48.6095C55.1992 47.2798 56.5648 45.7884 56.8703 45.3212C58.2539 43.147 58.6492 40.254 57.8227 38.1337C57.0141 36.0673 54.8039 34.2704 52.3063 33.6235C50.9047 33.2642 47.4906 33.2642 46.1789 33.6056Z" fill="white"/>
<path d="M47.3828 60.3248C46.5024 60.9358 46.125 61.5288 46.0172 62.5709C45.8735 63.7209 46.4305 64.9967 47.275 65.5178C48.0836 66.003 49.4852 65.985 50.2758 65.4459C51.0485 64.9248 51.6953 63.8108 51.6953 62.9663C51.6953 60.792 49.0719 59.1928 47.3828 60.3248Z" fill="white"/>
<path d="M73.8688 62.0678C73.5094 62.2834 73.2219 62.6608 73.0781 63.11C72.1078 66.0928 69.4844 69.1295 65.7648 71.5553C64.1297 72.6334 63.7344 73.0647 63.7344 73.8014C63.7344 74.3764 64.543 75.3467 65.082 75.4006C65.9086 75.4725 66.25 75.3287 67.6875 74.3764C71.2453 72.0045 73.7969 69.3452 75.3063 66.3983C76.3844 64.2959 76.6 63.5233 76.3125 62.8045C76.0789 62.2475 75.3422 61.7264 74.7492 61.7264C74.5695 61.7264 74.1742 61.8881 73.8688 62.0678Z" fill="white"/>
<defs>
<filter id="filter0_f_127_182" x="-7" y="-2" width="112" height="112" filterUnits="userSpaceOnUse" color-interpolation-filters="sRGB">
<feFlood flood-opacity="0" result="BackgroundImageFix"/>
<feBlend mode="normal" in="SourceGraphic" in2="BackgroundImageFix" result="shape"/>
<feGaussianBlur stdDeviation="5" result="effect1_foregroundBlur_127_182"/>
</filter>
</defs>
</svg>
