<svg width="92" height="92" viewBox="0 0 92 92" fill="none" xmlns="http://www.w3.org/2000/svg">
<path d="M40.8789 3.14461C32.0922 4.34851 24.6531 8.01414 18.4898 14.2134C9.45155 23.3055 5.58827 36.1891 8.1039 48.8751C9.12812 53.9782 12.0031 60.4649 14.9141 64.1485L15.4172 64.7954L12.7398 76.0977C11.2664 82.3509 10.1164 87.5798 10.1703 87.7954C10.3141 88.3524 10.9609 88.9274 11.5898 89.0352C12.0211 89.1251 14.4648 88.1009 24.0781 83.8063L36.0273 78.4876L38.0039 78.8649C41.3281 79.4938 43.3227 79.6555 46.8805 79.5477C52.6305 79.386 57.1047 78.3438 62.1898 75.9719C68.7484 72.8993 74.732 67.4907 78.6312 61.0759C83.8781 52.4868 85.4414 41.7235 82.9258 31.6969C80.0687 20.3227 71.8391 10.6915 61.0219 6.00163C58.3266 4.83366 55.2 3.89929 52.2891 3.3782C49.6117 2.91101 43.5203 2.76726 40.8789 3.14461ZM49.7734 6.48679C57.7336 7.45711 64.8312 10.9251 70.4375 16.5313C75.9539 22.0477 79.35 28.8399 80.4102 36.5844C80.7875 39.2798 80.6977 44.6884 80.2305 47.2579C78.0203 59.4227 69.6648 69.5212 58.1648 73.9774C51.9477 76.3673 44.275 76.8524 37.5367 75.2712C36.3508 75.0016 35.7937 74.9477 35.4344 75.0735C35.1648 75.1634 30.3492 77.2837 24.743 79.7813C19.1187 82.261 14.4828 84.2555 14.4289 84.2196C14.393 84.1657 15.3633 79.8173 16.6211 74.5344C17.8609 69.2696 18.9031 64.6876 18.9031 64.3641C18.9031 63.9329 18.6156 63.4118 17.7351 62.2079C14.5547 57.9313 12.5242 53.3673 11.4101 47.9766C10.8351 45.2094 10.6195 40.268 10.943 37.4649C12.5781 23.629 21.8141 12.2727 34.8953 8.01414C37.2672 7.24148 39.2797 6.77429 41.5078 6.48679C43.2148 6.27116 48.0305 6.2532 49.7734 6.48679Z" fill="white"/>
<path d="M43.4844 16.9088C37.7164 17.4478 32.3977 20.0174 28.3188 24.258C25.1742 27.5463 23.2875 30.9604 22.1735 35.4705C21.5625 37.9143 21.4008 42.2268 21.8141 44.7783C23.4672 54.8588 31.0141 62.6572 41.1485 64.8135C43.2867 65.2627 48.1742 65.2627 50.3125 64.8135C60.0156 62.765 67.3469 55.5416 69.4492 46.0002C69.9164 43.8799 70.0063 39.4236 69.6469 37.1775C68.443 29.8463 64.0047 23.5752 57.3203 19.7299C55.9727 18.9572 53.511 18.0049 51.6242 17.5197C50.0789 17.1424 46.3953 16.6752 45.3711 16.7291C45.1735 16.7471 44.3289 16.8189 43.4844 16.9088ZM47.8867 20.3049C53.7625 20.9697 58.9735 23.9525 62.4594 28.6783C63.843 30.5471 64.7235 32.2361 65.4781 34.5182C66.3227 37.0338 66.5563 38.8307 66.4305 41.9213C66.3227 45.1377 65.8016 47.276 64.436 50.0432C61.6508 55.7033 56.907 59.5666 50.6899 61.2377C49.1445 61.651 48.6414 61.6869 45.7305 61.6869C42.8016 61.6869 42.3344 61.651 40.7352 61.2197C33.6016 59.315 28.1031 54.14 25.911 47.258C25.1383 44.8322 24.9047 42.9814 25.0305 40.0885C25.2461 34.7518 27.1149 30.3853 30.8703 26.5221C35.3625 21.8861 41.6516 19.6041 47.8867 20.3049Z" fill="white"/>
<path d="M43.1789 25.6056C41.9211 25.947 40.6813 26.5939 39.7289 27.4204C38.8844 28.1571 38.0938 29.5946 38.0938 30.4212C38.0938 31.6251 39.0641 32.5235 40.3578 32.5235C40.9328 32.5235 41.1664 32.3798 41.975 31.5532C43.2508 30.2235 43.8258 29.954 45.6047 29.8642C47.4195 29.7563 48.4438 30.0259 49.3961 30.8345C50.618 31.8946 50.8875 33.7634 50.0609 35.4704C49.6297 36.3509 48.9648 37.0517 46.2336 39.5493C44.5266 41.0767 43.6641 43.3048 43.6641 46.072C43.6641 48.3001 44.1133 48.8032 46.018 48.6595C47.5094 48.5517 47.707 48.3001 47.8688 46.2696C48.0844 43.3587 48.1023 43.3228 50.8516 40.6095C52.1992 39.2798 53.5648 37.7884 53.8703 37.3212C55.2539 35.147 55.6492 32.254 54.8227 30.1337C54.0141 28.0673 51.8039 26.2704 49.3063 25.6235C47.9047 25.2642 44.4906 25.2642 43.1789 25.6056Z" fill="white"/>
<path d="M44.3828 52.3248C43.5024 52.9358 43.125 53.5288 43.0172 54.5709C42.8735 55.7209 43.4305 56.9967 44.275 57.5178C45.0836 58.003 46.4852 57.985 47.2758 57.4459C48.0485 56.9248 48.6953 55.8108 48.6953 54.9663C48.6953 52.792 46.0719 51.1928 44.3828 52.3248Z" fill="white"/>
<path d="M70.8688 54.0678C70.5094 54.2834 70.2219 54.6608 70.0781 55.11C69.1078 58.0928 66.4844 61.1295 62.7648 63.5553C61.1297 64.6334 60.7344 65.0647 60.7344 65.8014C60.7344 66.3764 61.543 67.3467 62.082 67.4006C62.9086 67.4725 63.25 67.3287 64.6875 66.3764C68.2453 64.0045 70.7969 61.3452 72.3063 58.3983C73.3844 56.2959 73.6 55.5233 73.3125 54.8045C73.0789 54.2475 72.3422 53.7264 71.7492 53.7264C71.5695 53.7264 71.1742 53.8881 70.8688 54.0678Z" fill="white"/>
</svg>
