<svg width="92" height="92" viewBox="0 0 92 92" fill="none" xmlns="http://www.w3.org/2000/svg">
<path d="M41.2383 0.215446C40.25 0.574821 39.1898 1.43732 38.6867 2.29982C38.2016 3.12638 38.1836 3.21623 38.1297 6.37873L38.0578 9.63107L36.782 9.95451C34.7336 10.4756 32.2719 11.4459 29.7742 12.7037L27.4562 13.8717L25.3539 11.7873C24.132 10.6014 22.9641 9.59514 22.5688 9.43342C22.1914 9.2717 21.4187 9.14592 20.8258 9.14592C19.0469 9.12795 18.2922 9.61311 14.7164 13.0811C11.2484 16.4592 10.925 16.9264 10.925 18.7053C10.925 20.3225 11.4281 21.2029 13.5844 23.3772L15.4891 25.2819L14.6625 26.7553C13.5305 28.7498 12.5602 30.9959 11.7695 33.4576L11.1047 35.542L8.19375 35.6139C4.85156 35.6858 4.11484 35.9194 2.91094 37.285C1.86875 38.4709 1.79688 38.9201 1.79688 44.0412C1.79688 48.4615 1.81484 48.6412 2.22812 49.5037C2.46172 49.9889 2.92891 50.6537 3.25234 50.9772C4.33047 52.0014 4.97734 52.1631 8.30156 52.253L11.3023 52.3248L11.518 53.2592C12.057 55.5592 13.6562 59.4764 15.0219 61.8662L15.525 62.7108L13.4227 64.8311C11.0867 67.203 10.7453 67.8139 10.7453 69.485C10.7273 71.21 11.1406 71.8389 14.5727 75.3608C17.9867 78.8647 18.5797 79.278 20.2867 79.278C22.0297 79.278 22.7844 78.8108 25.4617 76.1334L27.8516 73.7615L26.8273 72.7373C26.2523 72.1623 25.7133 71.6951 25.6234 71.6951C25.5156 71.6951 24.4195 72.7014 23.1797 73.9412C21.3109 75.792 20.8078 76.1873 20.3766 76.1873C19.9453 76.1873 19.3883 75.7201 17.0344 73.3483C15.4891 71.803 14.1414 70.3475 14.0336 70.1319C13.6023 69.2873 13.782 68.9998 16.4414 66.3045C19.568 63.142 19.5141 63.2858 18.0945 60.842C16.3516 57.8592 15.0219 54.6428 14.4648 52.0194C14.3031 51.2287 14.0875 50.3483 13.9797 50.0787C13.6023 49.1084 13.3508 49.0545 9.43359 49.0545C5.57031 49.0365 5.39062 49.0006 5.03125 48.0842C4.77969 47.4014 4.79766 40.2139 5.04922 39.6569C5.39062 38.9201 5.91172 38.8123 9.34375 38.8123C11.1047 38.8123 12.7578 38.7405 13.0094 38.6326C13.5844 38.417 13.7461 38.0936 14.2852 36.0092C15.0758 32.9725 16.4953 29.7201 18.2383 26.899C19.5141 24.8686 19.5141 24.8686 16.5312 21.8319C14.4469 19.7115 14.0156 19.1904 14.0156 18.7412C14.0156 18.292 14.4469 17.7889 16.693 15.5608C19.568 12.7037 20.1609 12.2186 20.8078 12.2186C21.1133 12.2186 22.0297 12.9733 23.9523 14.824C27.0789 17.8248 27.0969 17.8428 28.8578 16.7826C32.1281 14.8061 35.9555 13.2787 39.3695 12.5779C41.1125 12.2365 41.1125 12.2186 41.1844 7.76232C41.2383 3.97092 41.2383 3.91701 41.6695 3.5756C42.0469 3.25216 42.4242 3.23419 46.3594 3.23419H50.6539L51.0133 3.70138C51.3727 4.1506 51.3906 4.42014 51.3906 7.72639C51.3906 12.1467 51.2828 11.949 54.032 12.6678C57.3562 13.5303 60.4289 14.842 63.3039 16.6209C65.3344 17.8967 65.3164 17.8967 68.3711 14.9139C70.4375 12.9014 71.0305 12.3983 71.4437 12.3983C71.8391 12.3983 72.468 12.9194 74.7141 15.1295C77.4812 17.8967 77.9844 18.5076 77.9844 19.2444C77.9844 19.5139 77.1398 20.5022 75.3789 22.2811C72.3063 25.4076 72.3242 25.3537 73.5641 27.474C75.4688 30.7264 76.7984 34.0147 77.4633 37.0873C78.0023 39.585 77.8766 39.5311 82.3867 39.5311C85.9984 39.5311 86.0523 39.5311 86.5555 39.9623L87.0586 40.3936L87.1125 44.3108C87.1484 46.467 87.1305 48.4076 87.0586 48.6412C87.0047 48.8569 86.7891 49.2162 86.5734 49.4139C86.2141 49.7553 85.9445 49.7733 82.8 49.7733C78.2539 49.7733 78.4695 49.6475 77.6969 52.6123C76.9062 55.6311 75.4867 58.9014 73.7617 61.6865C72.4859 63.717 72.4859 63.717 75.4688 66.7537C77.607 68.91 77.9844 69.3951 77.9844 69.8623C77.9844 70.3295 77.5891 70.7967 75.1813 73.1686C73.6539 74.678 72.2164 76.0076 72.0008 76.1334C71.0484 76.6725 70.725 76.4928 68.1734 73.9951L65.7477 71.6233L64.6875 72.6834L63.6094 73.7615L65.9812 76.1514C67.293 77.4631 68.6227 78.703 68.9281 78.9006C70.3117 79.7631 72.6477 79.6194 73.9953 78.5772C74.3367 78.3256 75.9 76.8522 77.4812 75.3069C80.6977 72.1983 81.075 71.6233 81.075 69.8983C81.075 68.2631 80.5719 67.3826 78.4156 65.2084L76.5109 63.3037L77.3375 61.8303C78.4695 59.8358 79.4398 57.5897 80.2484 55.11L80.9133 53.0076H83.4648C86.7891 53.0076 87.6336 52.774 88.8555 51.5162C89.4125 50.9412 89.8438 50.2944 89.9875 49.8451C90.1312 49.342 90.2031 47.635 90.2031 44.5444C90.2031 40.124 90.1852 39.9444 89.7719 39.0819C89.2508 37.9678 88.5859 37.3389 87.418 36.8178C86.6453 36.4584 86.1242 36.4045 83.5187 36.3326L80.518 36.2428L80.3023 35.3264C79.7992 33.1522 78.2719 29.4147 76.8883 26.899L76.3133 25.8569L78.3977 23.7545C80.6617 21.4545 81.0391 20.8256 81.057 19.3342C81.093 17.5912 80.7695 17.0162 78.5953 14.6623C75.7742 11.6076 73.9953 9.91857 73.2406 9.61311C72.3242 9.2178 70.5273 9.2717 69.5391 9.72092C69.0359 9.93655 68.0117 10.7811 66.8438 11.949L64.957 13.8358L62.1719 12.4342C59.6383 11.1584 57.2305 10.224 55.218 9.70295L54.4453 9.50529V6.50451C54.4453 3.73732 54.4094 3.43185 54.0141 2.58732C53.5289 1.52716 52.3969 0.502945 51.4086 0.215446C50.5102 -0.0540848 41.993 -0.0540848 41.2383 0.215446Z" fill="white"/>
<path d="M43.9336 20.2328C41.9211 20.4305 39.4234 20.9516 37.7883 21.4726C29.2711 24.2758 23.1797 31.1039 21.4367 39.8547C20.9515 42.3164 21.0054 46.9703 21.5445 49.4141C22.6765 54.5531 24.8148 58.2547 29.1273 62.5312C32.5953 65.9633 33.7093 67.7602 34.5898 71.2102L34.9851 72.8094L34.0508 73.7437C32.775 75.0195 32.4515 75.9898 32.5593 78.3977C32.6312 80.3742 32.8109 80.9133 33.8172 82.0453C34.1226 82.3867 34.7695 82.8719 35.2367 83.1234C36.0812 83.5367 36.0992 83.5727 35.9195 84.0937C35.614 84.9562 35.7937 88.3703 36.1711 89.1609C36.6742 90.1672 37.8781 91.2453 38.9383 91.6406C39.8367 91.982 40.3398 92 46 92C51.6781 92 52.1633 91.982 53.0617 91.6406C54.2656 91.1914 55.2539 90.257 55.8109 89.0531C56.1703 88.2805 56.2422 87.8492 56.2422 86.3039C56.2422 85.2977 56.1703 84.2734 56.0625 84.0219C55.9008 83.5906 55.9547 83.5187 56.7633 83.1055C57.8414 82.5664 58.8297 81.4523 59.189 80.3562C59.5843 79.2422 59.5664 76.6906 59.1711 75.5406C58.9734 74.9656 58.5601 74.3547 57.9492 73.7258L57.0148 72.8094L57.4101 71.2102C58.2906 67.7602 59.4047 65.9812 62.8726 62.5492C67.2929 58.1648 69.4851 54.2656 70.5633 48.9109C70.9945 46.7727 70.9945 42.0289 70.5633 39.8547C69.575 34.8594 67.1312 30.4031 63.5375 26.9891C59.0273 22.7305 53.4031 20.4484 46.8265 20.2328C45.6406 20.1969 44.3289 20.1969 43.9336 20.2328ZM50.8515 23.7906C58.8117 25.6055 64.4898 30.6367 66.8078 37.9141C67.5265 40.1781 67.7601 41.8492 67.7601 44.5625C67.7601 47.132 67.4367 49.0906 66.6281 51.3547C65.3883 54.8766 63.9328 57.0687 60.8242 60.1055C59.5125 61.3812 58.0211 62.9984 57.5179 63.6812C55.9906 65.7117 54.8406 68.2812 54.2117 71.0664L53.9601 72.1445L52.5047 72.1984L51.0312 72.2523V63.9867V55.7391L53.2414 55.6672C55.8109 55.5773 56.8172 55.2359 58.0031 54.032C60.6086 51.3727 59.8179 47.0781 56.4398 45.425C55.739 45.0656 55.3258 45.0117 53.7265 45.0117C52.0914 45.0117 51.714 45.0656 50.9593 45.443C48.9109 46.4492 47.9765 48.0305 47.8328 50.7078L47.7429 52.4687H45.982H44.2031V50.8875C44.2031 49.9172 44.0953 48.9828 43.9156 48.4617C43.5562 47.3836 42.4062 46.1078 41.2562 45.4969C40.4297 45.0656 40.1601 45.0117 38.4531 45.0117C36.8179 45.0117 36.4406 45.0656 35.6859 45.443C32.3437 47.0961 31.5711 51.3367 34.1047 53.9602C34.464 54.3375 35.1828 54.8586 35.6679 55.1281C36.4586 55.5414 36.8179 55.5953 38.8664 55.6672L41.1484 55.7391V64.0047V72.2523L39.5851 72.1984L38.0398 72.1445L37.7883 71.0664C37.1593 68.2812 36.0093 65.7117 34.482 63.6812C33.9789 62.9984 32.4875 61.3812 31.1758 60.1055C27.3664 56.4039 25.4078 52.918 24.5273 48.3C24.1679 46.3953 24.15 42.6219 24.5093 40.6094C26.0906 31.6609 33.0984 25.0125 42.4961 23.557C44.0234 23.3055 49.432 23.4672 50.8515 23.7906ZM39.3695 48.1562C39.7109 48.2461 40.232 48.5875 40.5375 48.893C41.0226 49.3961 41.0586 49.5578 41.1304 50.9594L41.1843 52.4687H39.2437C37.6086 52.4687 37.1953 52.4148 36.764 52.1273C36.0992 51.6781 35.7758 51.1031 35.7578 50.3484C35.7398 48.6414 37.4109 47.6172 39.3695 48.1562ZM55.3437 48.4258C56.35 48.9469 56.7273 50.3844 56.1343 51.3906C55.5953 52.2711 55.0383 52.4687 52.9359 52.4687H51.0312V51.1211C51.0312 49.2344 51.5523 48.3719 52.8461 48.1023C53.5109 47.9586 54.7508 48.1203 55.3437 48.4258ZM47.7968 63.9687V72.2344H46H44.2031V63.9687V55.7031H46H47.7968V63.9687ZM55.739 75.9898C56.314 76.5109 56.332 76.5469 56.332 77.9844C56.332 79.4219 56.314 79.4578 55.739 79.9789L55.164 80.5H46H36.8359L36.2609 79.9789C35.6859 79.4578 35.6679 79.4219 35.6679 77.9844C35.6679 76.5469 35.6859 76.5109 36.2609 75.9898L36.8359 75.4687H46H55.164L55.739 75.9898ZM52.5765 84.3453C53.1515 84.9203 53.1875 85.0281 53.1875 86.1422C53.1875 87.4359 52.882 88.2625 52.307 88.5859C51.8218 88.8375 40.1781 88.8375 39.6929 88.5859C39.1179 88.2625 38.8125 87.4359 38.8125 86.1422C38.8125 85.0281 38.8484 84.9203 39.4234 84.3453L40.0343 83.7344H46H51.9656L52.5765 84.3453Z" fill="white"/>
</svg>
