<svg width="91" height="91" viewBox="0 0 91 91" fill="none" xmlns="http://www.w3.org/2000/svg">
<g clip-path="url(#clip0_45_188)">
<path d="M53.2314 0.195366C52.6805 0.497513 32.3654 20.8303 32.0633 21.3635C31.1924 22.9987 32.8098 24.6161 34.4449 23.7452C34.7115 23.603 39.4037 18.9997 44.8779 13.5254L54.8311 3.55455H71.1293H87.4453V19.8706V36.1688L62.207 61.4071L36.9688 86.6454L20.6705 70.3471L4.35449 54.0311L13.9699 44.3979C19.2664 39.0836 23.692 34.5692 23.7986 34.3559C24.5984 32.7919 22.9455 31.2278 21.3637 32.0631C20.5105 32.5252 0.213276 53.0002 0.0888619 53.5335C0.0177681 53.8178 0.0177681 54.2444 0.0710885 54.511C0.248823 55.2042 35.7957 90.751 36.4889 90.9288C36.7555 90.9821 37.182 90.9821 37.4664 90.9288C37.7863 90.8399 46.1932 82.5575 64.2154 64.553C78.6652 50.1209 90.609 38.0883 90.7512 37.8217C90.9645 37.4129 91 34.6403 91 19.3907C91 5.84732 90.9467 1.31509 90.7867 0.977402C90.3246 -0.0356903 91.16 -0.000137329 71.5914 -0.000137329C58.99 0.0176315 53.4803 0.0709534 53.2314 0.195366Z" fill="white"/>
<path d="M76.248 7.62465C74.6661 8.14008 73.1376 9.49086 72.4978 10.9127C71.3781 13.4543 72.3201 16.5469 74.6661 18.0577C77.741 20.0127 81.8822 18.6264 83.1796 15.1784C84.2105 12.4412 82.8419 9.13539 80.1937 7.96234C79.2872 7.55355 77.03 7.35805 76.248 7.62465ZM79.2872 11.7125C79.856 12.2813 79.9804 12.5301 79.9804 13.0811C79.9804 15.1073 77.6343 16.1559 76.2302 14.7696C74.8439 13.3655 75.8925 11.0194 77.9187 11.0194C78.4697 11.0194 78.7185 11.1438 79.2872 11.7125Z" fill="white"/>
<path d="M46.8331 16.7959C46.1577 17.0803 41.661 21.6125 41.4477 22.2346C41.1811 22.8922 41.3944 23.5854 41.9809 24.083C42.7807 24.7584 43.5628 24.6873 44.487 23.8342L45.2335 23.1232L49.8723 27.7443C54.4756 32.3121 54.5112 32.3477 55.2577 32.3477C55.862 32.3477 56.1286 32.241 56.5374 31.8322C56.9461 31.4234 57.0528 31.1568 57.0528 30.5525C57.0528 29.8061 57.0172 29.7705 52.4495 25.1672L47.8284 20.5283L48.5393 19.7818C49.4102 18.8398 49.4813 18.04 48.7526 17.258C48.1483 16.6182 47.544 16.476 46.8331 16.7959Z" fill="white"/>
<path d="M38.7284 25.4871C37.4309 26.0203 36.7022 26.5357 36.0801 27.4066C34.5338 29.5395 34.7471 32.3654 36.5778 34.1961C37.5731 35.2092 38.4618 35.6002 39.9903 35.6891C41.1989 35.7602 41.4655 35.7068 42.9051 35.1203C43.7938 34.7648 44.6469 34.4805 44.8247 34.4805C45.8555 34.4805 46.7086 35.5646 46.4776 36.5777C46.3354 37.2354 45.9977 37.5553 44.9491 37.9996C43.936 38.4439 43.545 38.9594 43.545 39.8658C43.545 40.7012 44.327 41.5898 45.0379 41.5898C45.8377 41.5898 47.4018 40.8789 48.2372 40.1324C49.4991 39.0305 50.0145 37.893 50.0323 36.2578C50.0323 34.0895 49.037 32.4721 47.0463 31.4234C46.4598 31.1035 46.0155 31.0146 44.878 31.0146C43.6694 31.0146 43.2606 31.1035 42.1231 31.6012C40.4346 32.3299 39.777 32.3299 39.0838 31.6545C38.1241 30.677 38.4795 29.5572 40.0081 28.7752C41.1989 28.1887 41.5899 27.7088 41.5899 26.8734C41.5899 26.1092 41.1633 25.4871 40.4879 25.2561C39.7948 25.0072 39.9014 24.9895 38.7284 25.4871Z" fill="white"/>
<path d="M27.0334 26.3758C25.4872 27.2289 26.1448 29.6816 27.9043 29.6816C28.8108 29.6816 29.6817 28.8107 29.6817 27.9221C29.6817 26.5891 28.2065 25.7182 27.0334 26.3758Z" fill="white"/>
<path d="M64.962 28.793C64.3932 29.0418 59.5944 34.0006 59.4878 34.4627C59.4344 34.6937 59.4878 35.1381 59.6122 35.4402C59.7544 35.7424 62.2426 38.3729 65.1753 41.2699L70.4895 46.5664H71.2715C72.018 46.5664 72.0891 46.5131 74.5241 44.1137C75.8749 42.7807 77.1012 41.4477 77.2434 41.1811C77.8122 40.0969 76.9413 38.7461 75.6616 38.7461C75.004 38.7461 74.8262 38.8705 73.1022 40.559L71.2538 42.3719L69.9919 41.11L68.7122 39.8303L69.9208 38.5684C71.1116 37.342 71.1294 37.2887 71.0405 36.56C70.8983 35.5824 70.2762 35.0137 69.2809 35.0137C68.6411 35.0137 68.4456 35.1381 67.3792 36.1689L66.1883 37.3064L64.962 36.0801L63.7356 34.8359L65.5485 33.0053C67.077 31.4412 67.3614 31.068 67.3614 30.5881C67.3614 29.1662 66.1706 28.2775 64.962 28.793Z" fill="white"/>
<path d="M31.3701 32.241C31.0857 32.3832 29.735 33.5918 28.402 34.9604C26.0025 37.3953 25.9492 37.4664 25.9492 38.2129V38.9949L31.459 44.5047C36.8621 49.9256 36.9688 50.0322 37.6797 50.0322C38.3729 50.0322 38.4973 49.9256 41.0922 47.3129C43.7049 44.718 43.8115 44.5936 43.8115 43.8826C43.8115 43.2783 43.7049 43.065 43.2072 42.6207C42.6918 42.1586 42.5141 42.0875 41.892 42.1764C41.2699 42.2652 40.9322 42.5141 39.4215 44.0248L37.6797 45.7666L36.4355 44.5225L35.1914 43.2961L36.1512 42.3008C36.6666 41.7676 37.1998 41.1455 37.3064 40.9322C37.9107 39.7592 37.0043 38.3906 35.6357 38.3906C35.2803 38.3906 34.8182 38.7105 33.9295 39.5814L32.6854 40.7723L31.4057 39.4926L30.1438 38.2307L31.9566 36.3822C33.5918 34.7293 33.7695 34.4627 33.7695 33.8939C33.7695 33.4318 33.6273 33.0941 33.2896 32.7209C32.6854 32.0633 32.0811 31.9211 31.3701 32.241Z" fill="white"/>
<path d="M56.3951 38.3903C53.9068 38.8879 52.165 41.0563 52.1828 43.6335C52.2005 45.6774 52.5204 46.1928 56.1285 49.8186C59.8253 53.5333 60.4474 53.942 62.4736 53.9243C65.4595 53.8887 67.539 51.8803 67.6812 48.8411C67.7523 47.668 67.6812 47.3481 67.2902 46.4772C66.6503 45.0731 65.9216 44.4333 64.9796 44.4333C63.4333 44.4333 62.7579 46.0151 63.7177 47.4192C64.1976 48.1124 64.2865 49.0188 63.9665 49.6231C63.6644 50.1741 62.6513 50.5295 61.9581 50.2985C61.1939 50.0497 55.8796 44.7176 55.7019 44.0067C55.5242 43.278 56.0218 42.336 56.7683 42.0338C57.4437 41.7495 57.9591 41.8383 58.7945 42.4249C59.6654 43.0114 60.5007 42.9581 61.1583 42.3182C61.8693 41.5895 61.887 40.5942 61.1583 39.8299C60.1275 38.728 57.9591 38.0881 56.3951 38.3903Z" fill="white"/>
<path d="M22.1635 42.3006C21.0082 42.6028 20.4039 43.0116 18.6799 44.6823C16.9381 46.3708 16.4938 47.0639 16.6537 47.8282C16.707 48.1303 18.5733 50.121 22.2346 53.7823C28.9352 60.4829 28.2242 60.1807 30.9436 57.4969C31.9744 56.4661 32.9164 55.3463 33.183 54.8487C34.1606 52.9292 33.8406 50.6542 32.3654 49.019C31.5123 48.0592 30.126 47.2772 29.2906 47.2772C28.8996 47.2772 28.7752 47.1706 28.6863 46.7795C28.1354 44.1491 26.2158 42.3895 23.7453 42.2118C23.2477 42.1762 22.5367 42.2118 22.1635 42.3006ZM24.474 46.0508C24.9361 46.4418 25.2738 47.2772 25.1494 47.7926C25.0961 48.0592 24.6873 48.6813 24.2608 49.1612L23.4787 50.0321L22.199 48.7524L20.9016 47.4727L21.417 46.904C22.2701 45.9975 22.9455 45.642 23.6031 45.7487C23.9408 45.802 24.3141 45.9442 24.474 46.0508ZM29.7705 51.3651C30.0193 51.6317 30.126 51.9694 30.126 52.5204C30.126 53.2313 30.0371 53.409 29.2906 54.1555L28.4375 55.0086L27.1934 53.7645L25.9492 52.5381L26.6246 51.845C27.7799 50.6186 28.8641 50.4586 29.7705 51.3651Z" fill="white"/>
<path d="M47.455 46.3354C46.4775 46.6908 45.9798 47.9172 46.442 48.8059C46.6019 49.0902 49.0547 51.6496 51.934 54.4934C55.8974 58.4391 57.2838 59.701 57.7103 59.8076C58.8834 60.0565 60.0564 58.8834 59.8076 57.7104C59.7009 57.2838 58.439 55.8975 54.4933 51.934C51.6496 49.0547 49.108 46.602 48.8414 46.4598C48.3437 46.2109 47.9172 46.1576 47.455 46.3354Z" fill="white"/>
<path d="M42.3008 51.845C41.6965 52.0583 41.0033 52.6271 39.5104 54.1023C37.5553 56.0218 37.502 56.1107 37.502 56.8572V57.657L42.7096 62.8823C45.5533 65.7439 48.1127 68.2144 48.3793 68.3566C49.9611 69.1919 51.6141 67.6279 50.8143 66.0638C50.7076 65.8505 49.7301 64.7841 48.6637 63.6999C46.0332 61.0339 46.1576 60.9628 50.7254 62.5091C54.44 63.7532 54.9732 63.8066 55.6309 62.9712C55.8441 62.6868 55.9863 62.2425 55.9863 61.8337C55.9863 60.6784 55.5242 60.3585 52.3428 59.3099L49.499 58.3501V56.946C49.499 55.773 49.4102 55.382 49.0014 54.5288C48.3971 53.3025 47.2063 52.2005 46.0865 51.8273C45.0557 51.4718 43.3494 51.4896 42.3008 51.845ZM45.1623 55.2753C45.34 55.382 45.6244 55.7197 45.7844 56.0218C46.2109 56.8216 45.9799 57.5681 45.0557 58.4745L44.2559 59.2566L43.0117 58.0302L41.7498 56.7861L42.6385 55.9329C43.3494 55.2575 43.6338 55.0976 44.167 55.0976C44.5225 55.0976 44.9668 55.1864 45.1623 55.2753Z" fill="white"/>
<path d="M34.0361 60.483C32.8097 60.8918 32.4898 61.1229 30.6236 62.9713C28.633 64.9264 28.3664 65.4774 28.8462 66.4016C29.0062 66.686 31.4589 69.2453 34.3382 72.0891C38.3017 76.0348 39.688 77.2967 40.1146 77.4033C41.2877 77.6522 42.4607 76.4791 42.1941 75.3061C42.123 74.9151 41.4476 74.0975 40.0257 72.6578L37.964 70.5428L38.9593 69.5297C40.239 68.2145 40.5589 67.5568 40.6656 66.0106C40.7722 64.3576 40.399 63.2024 39.3681 62.0649C38.0529 60.6074 35.7423 59.932 34.0361 60.483ZM36.2578 64.0733C36.9154 64.411 37.1464 64.8375 37.1464 65.6729C37.1464 66.2061 36.9865 66.4904 36.3111 67.2014L35.458 68.0901L34.2138 66.8459L32.9875 65.584L33.6806 64.8553C34.7293 63.7711 35.3335 63.5934 36.2578 64.0733Z" fill="white"/>
<g clip-path="url(#clip1_45_188)">
<path d="M-17.9999 -241.4C-25.3333 -238.734 -33.2 -232.334 -36.9333 -225.934C-40.5333 -219.8 -40.6666 -219.134 -41.0666 -195.667L-41.5999 -171.534L-51.0666 -169.134C-66.2666 -165.267 -84.5333 -158.067 -103.067 -148.734L-120.267 -140.067L-135.867 -155.534C-144.933 -164.334 -153.6 -171.8 -156.533 -173C-159.333 -174.2 -165.067 -175.134 -169.467 -175.134C-182.667 -175.267 -188.267 -171.667 -214.8 -145.934C-240.533 -120.867 -242.933 -117.4 -242.933 -104.2C-242.933 -92.2002 -239.2 -85.6669 -223.2 -69.5335L-209.067 -55.4002L-215.2 -44.4669C-223.6 -29.6669 -230.8 -13.0002 -236.667 5.26645L-241.6 20.7331L-263.2 21.2664C-288 21.7998 -293.467 23.5331 -302.4 33.6664C-310.133 42.4665 -310.667 45.7998 -310.667 83.7998C-310.667 116.6 -310.533 117.933 -307.467 124.333C-305.733 127.933 -302.267 132.866 -299.867 135.266C-291.867 142.866 -287.067 144.066 -262.4 144.733L-240.133 145.266L-238.533 152.2C-234.533 169.266 -222.667 198.333 -212.533 216.066L-208.8 222.333L-224.4 238.066C-241.733 255.666 -244.267 260.2 -244.267 272.6C-244.4 285.4 -241.333 290.066 -215.867 316.2C-190.533 342.2 -186.133 345.266 -173.467 345.266C-160.533 345.266 -154.933 341.8 -135.067 321.933L-117.333 304.333L-124.933 296.733C-129.2 292.466 -133.2 289 -133.867 289C-134.667 289 -142.8 296.466 -152 305.666C-165.867 319.4 -169.6 322.333 -172.8 322.333C-176 322.333 -180.133 318.866 -197.6 301.266C-209.067 289.8 -219.067 279 -219.867 277.4C-223.067 271.133 -221.733 269 -202 249C-178.8 225.533 -179.2 226.6 -189.733 208.466C-202.667 186.333 -212.533 162.466 -216.667 143C-217.867 137.133 -219.467 130.6 -220.267 128.6C-223.067 121.4 -224.933 121 -254 121C-282.667 120.866 -284 120.6 -286.667 113.8C-288.533 108.733 -288.4 55.3998 -286.533 51.2664C-284 45.7998 -280.133 44.9998 -254.667 44.9998C-241.6 44.9998 -229.333 44.4665 -227.467 43.6664C-223.2 42.0665 -222 39.6664 -218 24.1998C-212.133 1.66644 -201.6 -22.4669 -188.667 -43.4002C-179.2 -58.4669 -179.2 -58.4669 -201.333 -81.0002C-216.8 -96.7336 -220 -100.6 -220 -103.934C-220 -107.267 -216.8 -111 -200.133 -127.534C-178.8 -148.734 -174.4 -152.334 -169.6 -152.334C-167.333 -152.334 -160.533 -146.734 -146.267 -133C-123.067 -110.734 -122.933 -110.6 -109.867 -118.467C-85.5999 -133.134 -57.2 -144.467 -31.8666 -149.667C-18.9333 -152.2 -18.9333 -152.334 -18.3999 -185.4C-17.9999 -213.534 -17.9999 -213.934 -14.8 -216.467C-11.9999 -218.867 -9.19995 -219 20.0001 -219H51.8667L54.5334 -215.534C57.2001 -212.2 57.3334 -210.2 57.3334 -185.667C57.3334 -152.867 56.5334 -154.334 76.9334 -149C101.6 -142.6 124.4 -132.867 145.733 -119.667C160.8 -110.2 160.667 -110.2 183.333 -132.334C198.667 -147.267 203.067 -151 206.133 -151C209.067 -151 213.733 -147.134 230.4 -130.734C250.933 -110.2 254.667 -105.667 254.667 -100.2C254.667 -98.2002 248.4 -90.8669 235.333 -77.6669C212.533 -54.4669 212.667 -54.8669 221.867 -39.1335C236 -15.0002 245.867 9.39978 250.8 32.1998C254.8 50.7331 253.867 50.3331 287.333 50.3331C314.133 50.3331 314.533 50.3331 318.267 53.5331L322 56.7331L322.4 85.7998C322.667 101.8 322.533 116.2 322 117.933C321.6 119.533 320 122.2 318.4 123.666C315.733 126.2 313.733 126.333 290.4 126.333C256.667 126.333 258.267 125.4 252.533 147.4C246.667 169.8 236.133 194.066 223.333 214.733C213.867 229.8 213.867 229.8 236 252.333C251.867 268.333 254.667 271.933 254.667 275.4C254.667 278.866 251.733 282.333 233.867 299.933C222.533 311.133 211.867 321 210.267 321.933C203.2 325.933 200.8 324.6 181.867 306.066L163.867 288.466L156 296.333L148 304.333L165.6 322.066C175.333 331.8 185.2 341 187.467 342.466C197.733 348.866 215.067 347.8 225.067 340.066C227.6 338.2 239.2 327.266 250.933 315.8C274.8 292.733 277.6 288.466 277.6 275.666C277.6 263.533 273.867 257 257.867 240.866L243.733 226.733L249.867 215.8C258.267 201 265.467 184.333 271.467 165.933L276.4 150.333H295.333C320 150.333 326.267 148.6 335.333 139.266C339.467 135 342.667 130.2 343.733 126.866C344.8 123.133 345.333 110.466 345.333 87.5331C345.333 54.7331 345.2 53.3998 342.133 46.9998C338.267 38.7331 333.333 34.0665 324.667 30.1998C318.933 27.5331 315.067 27.1331 295.733 26.5998L273.467 25.9331L271.867 19.1331C268.133 2.99979 256.8 -24.7336 246.533 -43.4002L242.267 -51.1335L257.733 -66.7336C274.533 -83.8002 277.333 -88.4669 277.467 -99.5335C277.733 -112.467 275.333 -116.734 259.2 -134.2C238.267 -156.867 225.067 -169.4 219.467 -171.667C212.667 -174.6 199.333 -174.2 192 -170.867C188.267 -169.267 180.667 -163 172 -154.334L158 -140.334L137.333 -150.734C118.533 -160.2 100.667 -167.134 85.7334 -171L80.0001 -172.467V-194.734C80.0001 -215.267 79.7334 -217.534 76.8 -223.8C73.2001 -231.667 64.8 -239.267 57.4667 -241.4C50.8 -243.4 -12.3999 -243.4 -17.9999 -241.4Z" fill="black"/>
<path d="M2.00008 -92.8669C-12.9333 -91.4002 -31.4666 -87.5335 -43.5999 -83.6669C-106.8 -62.8669 -152 -12.2002 -164.933 52.7332C-168.533 70.9998 -168.133 105.533 -164.133 123.666C-155.733 161.8 -139.867 189.266 -107.867 221C-82.1333 246.466 -73.8666 259.8 -67.3333 285.4L-64.3999 297.266L-71.3333 304.2C-80.7999 313.666 -83.1999 320.867 -82.3999 338.733C-81.8666 353.4 -80.5333 357.4 -73.0666 365.8C-70.7999 368.333 -65.9999 371.933 -62.5333 373.8C-56.2666 376.867 -56.1333 377.133 -57.4666 381C-59.7333 387.4 -58.3999 412.733 -55.5999 418.6C-51.8666 426.067 -42.9333 434.067 -35.0666 437C-28.3999 439.533 -24.6666 439.667 17.3334 439.667C59.4668 439.667 63.0668 439.533 69.7334 437C78.6667 433.667 86.0001 426.733 90.1334 417.8C92.8001 412.067 93.3334 408.867 93.3334 397.4C93.3334 389.933 92.8001 382.333 92.0001 380.466C90.8001 377.267 91.2001 376.733 97.2001 373.667C105.2 369.667 112.533 361.4 115.2 353.267C118.133 345 118 326.066 115.067 317.533C113.6 313.266 110.533 308.733 106 304.066L99.0667 297.266L102 285.4C108.533 259.8 116.8 246.6 142.533 221.133C175.333 188.6 191.6 159.667 199.6 119.933C202.8 104.066 202.8 68.8665 199.6 52.7332C192.267 15.6665 174.133 -17.4002 147.467 -42.7335C114 -74.3335 72.2668 -91.2668 23.4668 -92.8669C14.6667 -93.1335 4.93341 -93.1335 2.00008 -92.8669ZM53.3334 -66.4669C112.4 -53.0002 154.533 -15.6668 171.733 38.3332C177.067 55.1331 178.8 67.5331 178.8 87.6665C178.8 106.733 176.4 121.266 170.4 138.066C161.2 164.2 150.4 180.466 127.333 203C117.6 212.466 106.533 224.466 102.8 229.533C91.4668 244.6 82.9334 263.666 78.2668 284.333L76.4001 292.333L65.6001 292.733L54.6667 293.133V231.8V170.6L71.0668 170.066C90.1334 169.4 97.6001 166.866 106.4 157.933C125.733 138.2 119.867 106.333 94.8001 94.0665C89.6001 91.3998 86.5334 90.9998 74.6667 90.9998C62.5334 90.9998 59.7334 91.3998 54.1334 94.1998C38.9334 101.666 32.0001 113.4 30.9334 133.266L30.2668 146.333H17.2001H4.00008V134.6C4.00008 127.4 3.20009 120.466 1.86674 116.6C-0.799911 108.6 -9.33325 99.1331 -17.8666 94.5998C-23.9999 91.3998 -25.9999 90.9998 -38.6666 90.9998C-50.7999 90.9998 -53.5999 91.3998 -59.1999 94.1998C-83.9999 106.466 -89.7333 137.933 -70.9333 157.4C-68.2666 160.2 -62.9333 164.066 -59.3333 166.066C-53.4666 169.133 -50.7999 169.533 -35.5999 170.066L-18.6666 170.6V231.933V293.133L-30.2666 292.733L-41.7333 292.333L-43.5999 284.333C-48.2666 263.666 -56.7999 244.6 -68.1333 229.533C-71.8666 224.466 -82.9333 212.466 -92.6666 203C-120.933 175.533 -135.467 149.667 -142 115.4C-144.667 101.266 -144.8 73.2665 -142.133 58.3332C-130.4 -8.06686 -78.3999 -57.4002 -8.66658 -68.2002C2.66675 -70.0669 42.8001 -68.8669 53.3334 -66.4669ZM-31.8666 114.333C-29.3333 115 -25.4666 117.533 -23.1999 119.8C-19.5999 123.533 -19.3333 124.733 -18.7999 135.133L-18.3999 146.333H-32.7999C-44.9333 146.333 -47.9999 145.933 -51.1999 143.8C-56.1333 140.466 -58.5333 136.2 -58.6666 130.6C-58.7999 117.933 -46.3999 110.333 -31.8666 114.333ZM86.6667 116.333C94.1334 120.2 96.9334 130.866 92.5334 138.333C88.5334 144.866 84.4001 146.333 68.8001 146.333H54.6667V136.333C54.6667 122.333 58.5334 115.933 68.1334 113.933C73.0668 112.866 82.2668 114.066 86.6667 116.333ZM30.6667 231.666V293H17.3334H4.00008V231.666V170.333H17.3334H30.6667V231.666ZM89.6001 320.867C93.8668 324.733 94.0001 325 94.0001 335.666C94.0001 346.333 93.8668 346.6 89.6001 350.466L85.3334 354.333H17.3334H-50.6666L-54.9333 350.466C-59.1999 346.6 -59.3333 346.333 -59.3333 335.666C-59.3333 325 -59.1999 324.733 -54.9333 320.867L-50.6666 317H17.3334H85.3334L89.6001 320.867ZM66.1334 382.867C70.4001 387.133 70.6667 387.933 70.6667 396.2C70.6667 405.8 68.4001 411.933 64.1334 414.333C60.5334 416.2 -25.8666 416.2 -29.4666 414.333C-33.7332 411.933 -35.9999 405.8 -35.9999 396.2C-35.9999 387.933 -35.7332 387.133 -31.4666 382.867L-26.9333 378.333H17.3334H61.6001L66.1334 382.867Z" fill="black"/>
</g>
</g>
<defs>
<clipPath id="clip0_45_188">
<rect width="91" height="91" fill="white"/>
</clipPath>
<clipPath id="clip1_45_188">
<rect width="682.667" height="682.667" fill="white" transform="translate(-324 -243)"/>
</clipPath>
</defs>
</svg>
