<svg width="92" height="92" viewBox="0 0 92 92" fill="none" xmlns="http://www.w3.org/2000/svg">
<g clip-path="url(#clip0_45_226)">
<path d="M39.0281 7.78046C38.3992 8.4453 38.5609 9.63124 39.2976 9.99062C39.4773 10.0805 42.55 10.1883 46.1437 10.2422L52.6484 10.332L39.1898 18.0945L25.7133 25.875H13.3867H1.04218L0.521082 26.3961C-0.125793 27.043 -0.143762 27.7078 0.449207 28.3008L0.880457 28.75H12.7578H24.6172V36.6562V44.5625H17.0883C9.75702 44.5625 9.55936 44.5805 9.09218 44.9398C8.42733 45.4609 8.42733 46.5391 9.09218 47.0602C9.55936 47.4195 9.75702 47.4375 17.0883 47.4375H24.6172V55.3437V63.25H12.7578H0.880457L0.449207 63.6992C-0.143762 64.2922 -0.125793 64.957 0.521082 65.6039L1.04218 66.125H13.3867H25.7133L41.7594 75.3789C52.7742 81.7398 57.9492 84.6328 58.3086 84.6328C58.65 84.6328 60.5187 83.6625 63.7711 81.7758C66.5023 80.1945 73.7078 76.0437 79.7812 72.5398C85.8547 69.0359 91.1016 65.9273 91.425 65.6219L92 65.1008V46V26.8992L91.425 26.3602C91.1016 26.0727 83.6445 21.6883 74.8398 16.6031L58.8476 7.36718H49.1265H39.4055L39.0281 7.78046ZM73.1148 18.9391C85.064 25.857 87.6516 27.4023 87.382 27.5461C87.2023 27.6539 85.3156 28.732 83.1953 29.9719C81.075 31.2117 79.2422 32.218 79.1344 32.218C78.9906 32.218 57.5719 20.0711 50.7976 16.1359L49.5758 15.4172L53.8523 12.9375C56.2062 11.5719 58.2187 10.4578 58.3265 10.4758C58.4344 10.4937 65.0828 14.3031 73.1148 18.9391ZM60.5547 25.0305C67.814 29.1812 74.3187 32.8828 74.9836 33.2781L76.2234 33.9969L72.9891 35.8656L69.7367 37.7344L55.0922 29.343C47.0242 24.725 40.4476 20.8797 40.4656 20.8078C40.5015 20.718 41.9031 19.8555 43.5742 18.8851C46.1078 17.4297 46.6828 17.1601 46.9883 17.3039C47.1859 17.4117 53.2953 20.8797 60.5547 25.0305ZM52.1633 30.9961L66.8617 39.3875L62.675 41.8133C60.375 43.1609 58.4164 44.257 58.3086 44.257C58.1828 44.257 29.307 27.6719 28.9656 27.4023C28.8937 27.3305 37.2672 22.4969 37.375 22.5508C37.4289 22.5867 44.0773 26.3781 52.1633 30.9961ZM88.9094 63.8789C88.6578 64.1125 60.3391 80.4461 59.9258 80.6078C59.6922 80.7156 59.6562 78.7211 59.6922 63.7711L59.7461 46.8266L64.0226 44.3648L68.2812 41.9031V48.1922V54.4812L68.8203 55.0203C69.2515 55.4516 69.4851 55.5414 69.8805 55.4695C70.3836 55.3617 79.6375 50.1328 80.1406 49.6477C80.3742 49.432 80.4281 48.282 80.5 42.1008L80.5898 34.7875L84.8125 32.3617L89.0351 29.918L89.0891 46.8086C89.125 60.1594 89.0711 63.7352 88.9094 63.8789ZM42.2445 38.3992L56.7812 46.7906V63.7352V80.6977L56.3859 80.482C56.1523 80.3562 50.0609 76.8523 42.8375 72.6836C35.614 68.4969 29.1992 64.8133 28.6062 64.4898L27.4922 63.8789V46.9344C27.4922 37.6266 27.5461 30.0078 27.6 30.0078C27.6719 30.0078 34.2664 33.7812 42.2445 38.3992ZM77.625 42.1727V47.8867L75.2531 49.2344C73.9414 49.9711 72.5039 50.8156 72.0187 51.0852L71.1562 51.5883L71.1922 45.8742L71.2461 40.1781L74.3906 38.3453C76.1156 37.3391 77.5531 36.4945 77.5891 36.4945C77.607 36.4766 77.625 39.0461 77.625 42.1727Z" fill="white"/>
<path d="M30.6367 37.8243C30.0977 38.3454 30.0438 39.154 30.5109 39.6751C30.8164 40.0345 44.5984 48.0665 45.4789 48.39C46.3414 48.7314 47.4375 47.9587 47.4375 47.0064C47.4375 46.5212 46.7008 45.8384 45.3352 45.0657C44.5625 44.6345 41.2563 42.7118 37.968 40.8251C34.4102 38.7767 31.8047 37.3751 31.5352 37.3751C31.2836 37.3751 30.8703 37.5728 30.6367 37.8243Z" fill="white"/>
<path d="M30.6367 44.4727C30.1515 44.9399 30.0437 45.7485 30.4211 46.2336C30.7265 46.6289 38.0578 50.8516 38.6687 50.9774C39.0461 51.0492 39.2797 50.9594 39.7289 50.5102C40.1961 50.025 40.2679 49.8453 40.1781 49.3602C40.1062 49.0547 39.9625 48.6953 39.8367 48.5875C39.2257 47.9946 32.0203 44.0235 31.5711 44.0235C31.2836 44.0235 30.8882 44.2032 30.6367 44.4727Z" fill="white"/>
</g>
<defs>
<clipPath id="clip0_45_226">
<rect width="92" height="92" fill="white"/>
</clipPath>
</defs>
</svg>
