<svg width="91" height="91" viewBox="0 0 91 91" fill="none" xmlns="http://www.w3.org/2000/svg">
<g clip-path="url(#clip0_45_222)">
<path d="M71.9824 0.391014C71.5025 0.515427 69.3697 2.5416 62.3848 9.52656L53.4092 18.4844H32.6676H11.926L11.8726 11.6238L11.8193 4.76328L11.3928 4.42558C10.5574 3.75019 7.99804 4.10566 5.70526 5.20761C4.05233 6.00742 2.04394 8.03359 1.19081 9.72207C-0.0888764 12.317 -0.0177827 10.2553 0.0355376 43.1006L0.0888579 72.6045L0.51542 73.8486C1.35077 76.3369 3.35917 78.683 5.58085 79.785C7.87362 80.9047 6.89608 80.8691 29.9482 80.8691H50.9209L46.9752 84.8148C42.6029 89.1871 42.3896 89.507 43.2428 90.3602L43.7049 90.8223H66.917H90.1291L90.5556 90.3779L91 89.9514V66.8281C91 52.3605 90.9289 43.5805 90.8223 43.385C90.7334 43.2072 90.4312 42.9584 90.1291 42.8518C89.3826 42.5318 88.9383 42.834 86.7344 45.0379L84.8681 46.9219L84.7793 33.1475L84.6904 19.3908L84.2816 18.982C83.8906 18.5732 83.8195 18.5732 78.523 18.5199L73.1554 18.4666L77.1012 14.5209C79.6428 11.9615 81.1357 10.3441 81.3135 9.91757C81.6867 8.99335 81.6512 7.55371 81.2246 6.66504C81.0113 6.2207 79.7672 4.85214 78.1498 3.25253C76.017 1.15527 75.2883 0.533203 74.7373 0.373238C73.8842 0.142181 72.8355 0.142181 71.9824 0.391014ZM76.4613 5.29648C79.5717 8.40683 79.5539 8.30019 77.4033 10.4686L75.8926 11.9971L72.8355 8.92226L69.7607 5.86523L71.2892 4.35449C73.4576 2.2039 73.351 2.18613 76.4613 5.29648ZM9.24218 27.2822C9.24218 47.4018 9.24218 47.6328 9.59765 47.9883C10.273 48.6637 11.375 48.3793 11.7127 47.4373C11.8549 47.0463 11.9082 42.9584 11.9082 34.1072V21.3281H31.2279H50.5476L46.6908 25.2027C44.5758 27.3355 42.834 29.2018 42.834 29.3795C42.834 30.3393 43.7937 31.1035 44.6291 30.7658C44.8601 30.677 49.2146 26.4291 54.2978 21.3459L63.54 12.0859L66.5971 15.143L69.6719 18.2178L55.8619 32.0277L42.0342 45.8555L38.9771 42.7984L35.9023 39.7236L38.7461 36.8799C41.8387 33.7518 42.0164 33.4674 41.1455 32.6143C40.2746 31.7256 40.0435 31.8678 36.2933 35.6002L32.8453 39.0482L30.5881 45.4289L28.3308 51.8096L25.7892 51.8984C23.3898 51.9873 23.2299 52.0051 22.91 52.4139C22.4656 52.9648 22.4834 53.6402 22.9633 54.1557L23.3365 54.5645H42.3363H61.3361L61.7627 54.1201C62.2959 53.6047 62.3314 52.9826 61.8693 52.4139L61.5316 51.9873L48.0594 51.8984L34.6049 51.8096L38.5861 50.4232L42.5674 49.0191L56.4307 35.1736L70.2939 21.3281H76.2125H82.1133V35.4936V49.6768L72.3379 59.4521C63.8955 67.8945 62.5625 69.2986 62.5625 69.7607C62.5625 70.4539 63.1846 71.0938 63.8777 71.0938C64.3754 71.0938 65.7439 69.7785 76.3724 59.15L88.334 47.1885V53.0893V58.9723L86.841 59.0256C85.0992 59.1145 84.6015 59.3988 84.6015 60.3764C84.6015 61.4072 85.0637 61.6738 86.8232 61.6738H88.334V63.7178V65.7617H86.8765C85.1703 65.7617 84.6015 66.0994 84.6015 67.1125C84.6015 68.0723 85.2414 68.4277 86.9299 68.4277H88.334V70.4717V72.5156H86.8232C85.0637 72.5156 84.6015 72.7822 84.6015 73.8131C84.6015 74.7906 85.0992 75.075 86.841 75.1639L88.334 75.2172V77.1367V79.0562L86.841 79.1096C85.0992 79.1984 84.6015 79.4828 84.6015 80.4604C84.6015 81.4912 85.0637 81.7578 86.8232 81.7578H88.334V84.957V88.1562H67.859H47.3662L54.3512 81.1713C58.3146 77.2078 61.3183 74.0619 61.3183 73.8842C61.3183 73.4932 60.9984 72.8355 60.7141 72.6578C60.6074 72.5867 60.2519 72.5156 59.9142 72.5156C59.3633 72.5156 59.0256 72.7822 56.4307 75.3594L53.5691 78.2031H31.4412C7.62479 78.2031 8.37128 78.2387 6.54062 77.2967C5.49198 76.7635 4.05233 75.2527 3.50136 74.1152C2.2039 71.467 2.59491 68.5877 4.54999 66.1883C5.72304 64.7309 8.28241 63.4512 10.0242 63.4512C10.6107 63.4512 10.9484 63.3445 11.3217 63.0246L11.8193 62.598V57.2482C11.8193 51.9873 11.8193 51.8984 11.4283 51.5252C10.9484 51.0453 10.0953 51.0098 9.59765 51.4541C9.25995 51.7562 9.24218 51.9873 9.24218 56.2707V60.7674L8.49569 60.9629C6.32733 61.5316 5.08319 62.1359 3.59022 63.3979L2.66601 64.1977V39.1549C2.66601 21.8436 2.71933 13.7744 2.86151 13.0635C3.21698 11.1439 4.44335 9.20663 5.98964 8.14023C6.91386 7.51816 8.24687 6.94941 8.85116 6.93164H9.24218V27.2822ZM71.0049 10.8418L74.0264 13.8633L72.7822 15.1074L71.5381 16.3516L68.481 13.2945L65.4062 10.2197L66.5971 9.0289C67.2547 8.35352 67.8412 7.82031 67.8945 7.82031C67.9478 7.82031 69.3519 9.17109 71.0049 10.8418ZM39.226 47.3129C39.1016 47.384 38.2662 47.7039 37.342 48.0061L35.689 48.557L34.4271 47.3129L33.183 46.0687L33.8584 44.167L34.5338 42.2652L36.9865 44.718C38.6572 46.3887 39.3682 47.224 39.226 47.3129Z" fill="white"/>
<path d="M71.7691 71.7691C64.5176 79.0207 64.1621 79.3939 64.1621 80.016C64.1621 80.5137 64.2688 80.7625 64.6242 81.0291C65.0863 81.4023 65.2818 81.4023 72.6223 81.4023C77.9721 81.4023 80.2648 81.349 80.6025 81.1891C80.8869 81.0646 81.118 80.7625 81.2424 80.3537C81.349 79.9449 81.4023 77.1012 81.3668 72.2846L81.3135 64.8375L80.8869 64.4998C80.6559 64.3221 80.2293 64.1621 79.9271 64.1621C79.4295 64.1621 78.5408 64.9975 71.7691 71.7691ZM78.7363 73.7598V78.7363H73.7242H68.6943L73.6709 73.7598C76.408 71.0227 78.6652 68.7832 78.683 68.7832C78.7186 68.7832 78.7363 71.0227 78.7363 73.7598Z" fill="white"/>
</g>
<defs>
<clipPath id="clip0_45_222">
<rect width="91" height="91" fill="white"/>
</clipPath>
</defs>
</svg>
